<svg width="1300" height="900" viewBox="0 0 1300 900" fill="none" xmlns="http://www.w3.org/2000/svg">
<g clip-path="url(#clip0)">
<rect width="1300" height="900" fill="url(#paint0_linear)"/>
<path opacity="0.07" d="M1075.23 368.521C1075.23 374.157 1075.1 379.794 1074.73 385.055C1128.56 426.013 1170 513.818 1170 591.101C1170 675.274 1120.8 714.98 1060.08 679.908C1059.95 679.783 1059.83 679.783 1059.7 679.658L678.231 459.582C678.105 459.457 677.98 459.457 677.73 459.332C609.498 419.876 554.162 311.279 554.162 216.71C554.162 128.154 602.738 83.1866 664.96 110.367C672.597 49.6179 713.285 23.4393 762.362 51.8725C785.899 65.5254 807.558 89.4494 824.459 118.258C848.997 81.8088 890.813 72.5398 938.137 99.8457C1013.88 143.435 1075.23 263.806 1075.23 368.521Z" fill="url(#paint1_linear)"/>
<path opacity="0.4" d="M1012.63 428.644C1012.63 434.28 1012.5 439.917 1012.13 445.178C1065.96 486.136 1107.4 573.941 1107.4 651.224C1107.4 735.397 1058.2 775.103 997.479 740.031C997.354 739.906 997.229 739.906 997.104 739.781L615.633 519.705C615.508 519.58 615.382 519.58 615.132 519.455C546.9 479.999 491.564 371.402 491.564 276.833C491.564 188.277 540.14 143.31 602.362 170.49C609.999 109.741 650.688 83.5624 699.764 111.996C723.301 125.649 744.96 149.573 761.861 178.381C786.4 141.932 828.215 132.663 875.539 159.969C951.282 203.558 1012.63 323.929 1012.63 428.644Z" fill="url(#paint2_linear)"/>
<path opacity="0.2" d="M408.685 535.864L350.594 502.295V482.63L408.685 516.198C413.442 518.954 420.328 524.465 426.212 532.983C432.597 542.126 437.104 553.65 437.104 566.176C437.104 579.954 433.598 587.845 426.838 590.1C420.578 592.229 413.192 588.596 408.559 585.966L384.647 572.188L384.522 572.063C382.519 570.81 379.264 569.683 376.634 570.434C374.506 571.061 372.127 573.19 372.127 580.831C372.127 588.471 374.506 593.231 376.509 595.987C379.013 599.494 382.268 601.999 384.271 603.001L384.522 603.126L457.511 645.338V665.003L384.897 623.042C379.89 620.412 372.753 614.9 366.494 606.132C359.733 596.613 354.976 584.463 355.101 570.935C355.101 557.533 359.733 550.644 366.494 548.765C372.753 547.011 379.89 549.517 384.897 552.648L408.559 566.301C411.94 568.305 414.569 569.182 416.196 568.556C417.448 568.18 419.952 566.301 419.952 556.28C419.952 549.892 417.824 545.634 415.946 542.753C413.692 539.496 410.562 536.991 408.685 535.864Z" fill="#F7F8FB"/>
<path d="M363.113 497.41C363.113 513.568 353.598 521.208 341.954 514.57C330.311 507.806 320.796 489.268 320.796 472.985C320.796 456.827 330.311 449.186 341.954 455.825C353.598 462.588 363.113 481.252 363.113 497.41Z" fill="#1D69CF"/>
<path d="M487.056 671.516C487.056 687.674 477.541 695.315 465.898 688.676C454.255 681.912 444.74 663.374 444.74 647.091C444.74 630.933 454.255 623.292 465.898 629.931C477.541 636.695 487.056 655.358 487.056 671.516Z" fill="#1D69CF"/>
<path opacity="0.07" d="M587.088 255.414L962.55 472.233V671.015L586.963 454.196L587.088 255.414Z" fill="url(#paint3_linear)"/>
<path opacity="0.3" d="M536.885 280.465L912.346 497.284V696.066L536.885 479.247V280.465Z" fill="url(#paint4_linear)"/>
<path d="M570.562 398.833C570.562 414.866 580.076 433.278 591.72 440.042C603.363 446.806 612.878 439.291 612.878 423.258C612.878 407.225 603.363 388.812 591.72 382.048C580.076 375.285 570.562 382.8 570.562 398.833Z" fill="#1D69CF"/>
<path opacity="0.15" d="M623.521 429.771C623.521 437.161 627.902 445.804 633.411 448.935C638.794 452.067 643.176 448.56 643.176 441.169C643.176 433.779 638.794 425.137 633.286 422.005C627.902 418.874 623.521 422.381 623.521 429.771Z" fill="#F7F8FB"/>
<path opacity="0.15" d="M653.692 447.182C653.692 454.572 658.074 463.214 663.583 466.346C668.966 469.477 673.348 465.97 673.348 458.58C673.348 451.19 668.966 442.547 663.458 439.416C658.074 436.284 653.692 439.791 653.692 447.182Z" fill="#F7F8FB"/>
<path opacity="0.15" d="M817.573 481V594.107L802.8 585.59V472.483L817.573 481Z" fill="#F7F8FB"/>
<path opacity="0.15" d="M849.874 499.789V612.896L835.101 604.378V491.272L849.874 499.789Z" fill="#F7F8FB"/>
<path opacity="0.15" d="M882.3 518.577V631.684L867.526 623.167V510.06L882.3 518.577Z" fill="#F7F8FB"/>
<path opacity="0.07" d="M586.963 527.096L962.425 743.914V942.696L586.963 725.877V527.096Z" fill="url(#paint5_linear)"/>
<path opacity="0.3" d="M536.885 553.4L912.346 770.218V969L536.885 752.181V553.4Z" fill="url(#paint6_linear)"/>
<path d="M570.562 671.766C570.562 687.799 580.076 706.212 591.72 712.976C603.363 719.74 612.878 712.224 612.878 696.191C612.878 680.159 603.363 661.746 591.72 654.982C580.076 648.218 570.562 655.734 570.562 671.766Z" fill="#1D69CF"/>
<path opacity="0.15" d="M623.521 702.83C623.521 710.22 627.902 718.863 633.411 721.994C638.794 725.126 643.176 721.618 643.176 714.228C643.176 706.838 638.794 698.195 633.286 695.064C627.902 691.933 623.521 695.315 623.521 702.83Z" fill="#F7F8FB"/>
<path opacity="0.15" d="M653.567 720.24C653.567 727.63 657.949 736.273 663.458 739.405C668.841 742.536 673.223 739.029 673.223 731.639C673.223 724.249 668.841 715.606 663.333 712.474C657.949 709.218 653.567 712.725 653.567 720.24Z" fill="#F7F8FB"/>
<path opacity="0.15" d="M817.573 757.817V870.924L802.8 862.406V749.3L817.573 757.817Z" fill="#F7F8FB"/>
<path opacity="0.15" d="M849.874 776.606V889.712L835.101 881.195V768.088L849.874 776.606Z" fill="#F7F8FB"/>
<path opacity="0.15" d="M882.3 795.394V908.5L867.526 899.983V786.877L882.3 795.394Z" fill="#F7F8FB"/>
<path opacity="0.3" d="M203.489 -14.012L437.48 121.14V554.903L203.489 419.626V-14.012Z" fill="url(#paint7_linear)"/>
<path d="M347.965 143.059C347.965 164.729 335.445 175 320.046 165.981C304.647 156.963 292.127 132.162 292.127 110.493C292.127 88.8233 304.647 78.5523 320.046 87.5708C335.445 96.5892 347.965 121.39 347.965 143.059Z" fill="white"/>
<path d="M320.046 183.392C295.132 168.862 274.6 182.515 270.969 213.829C270.343 219.215 274.475 226.48 279.482 229.361L360.734 276.833C365.742 279.714 369.874 277.459 369.248 271.197C365.492 235.498 344.835 197.922 320.046 183.392Z" fill="white"/>
<path opacity="0.15" d="M250.438 267.313L389.905 347.853V364.888L250.438 284.348V267.313Z" fill="#F7F8FB"/>
<path opacity="0.15" d="M264.584 309.274L375.132 373.03V390.065L264.584 326.309V309.274Z" fill="#F7F8FB"/>
<path d="M292.753 380.921L129.999 286.854V335.328L292.753 429.395V380.921Z" fill="white"/>
<path opacity="0.2" d="M487.933 -69L522.738 -0.610004C527.495 8.78423 526.744 18.1785 520.985 20.4331C515.226 22.6877 506.713 16.8006 501.955 7.40641L501.58 6.52961V82.435C501.58 91.0777 495.57 94.5849 488.059 90.3262C480.547 85.9422 474.537 75.5459 474.537 66.9032V-9.00218L474.162 -8.62641C469.404 -4.74346 460.766 -8.75167 455.132 -17.6449C449.373 -26.5381 448.622 -36.8091 453.379 -40.6921L487.933 -69Z" fill="url(#paint8_linear)"/>
<path opacity="0.2" d="M487.933 940.817L453.129 872.427C448.371 863.032 449.123 853.638 454.882 851.384C460.641 849.129 469.154 855.016 473.911 864.41L474.287 865.287V789.382C474.287 780.739 480.296 777.232 487.808 781.491C495.32 785.874 501.329 796.271 501.329 804.913V880.819L501.705 880.443C506.462 876.56 515.101 880.568 520.735 889.462C526.494 898.355 527.245 908.626 522.487 912.509L487.933 940.817Z" fill="url(#paint9_linear)"/>
</g>
<defs>
<linearGradient id="paint0_linear" x1="-159" y1="142" x2="1198.26" y2="1051.79" gradientUnits="userSpaceOnUse">
<stop stop-color="#499DFF"/>
<stop offset="1" stop-color="#072695"/>
</linearGradient>
<linearGradient id="paint1_linear" x1="1147.6" y1="129.324" x2="760.035" y2="496.763" gradientUnits="userSpaceOnUse">
<stop stop-color="white"/>
<stop offset="1" stop-color="white" stop-opacity="0"/>
</linearGradient>
<linearGradient id="paint2_linear" x1="1084.99" y1="189.447" x2="697.425" y2="556.886" gradientUnits="userSpaceOnUse">
<stop stop-color="white"/>
<stop offset="1" stop-color="white" stop-opacity="0"/>
</linearGradient>
<linearGradient id="paint3_linear" x1="767.081" y1="271.31" x2="781.084" y2="622.927" gradientUnits="userSpaceOnUse">
<stop stop-color="white"/>
<stop offset="1" stop-color="white" stop-opacity="0"/>
</linearGradient>
<linearGradient id="paint4_linear" x1="717" y1="296.361" x2="731.003" y2="647.979" gradientUnits="userSpaceOnUse">
<stop stop-color="white"/>
<stop offset="1" stop-color="white" stop-opacity="0"/>
</linearGradient>
<linearGradient id="paint5_linear" x1="767.054" y1="543.034" x2="781.057" y2="894.65" gradientUnits="userSpaceOnUse">
<stop stop-color="white"/>
<stop offset="1" stop-color="white" stop-opacity="0"/>
</linearGradient>
<linearGradient id="paint6_linear" x1="716.974" y1="569.337" x2="730.977" y2="920.954" gradientUnits="userSpaceOnUse">
<stop stop-color="white"/>
<stop offset="1" stop-color="white" stop-opacity="0"/>
</linearGradient>
<linearGradient id="paint7_linear" x1="462.557" y1="24.1103" x2="254.693" y2="384.06" gradientUnits="userSpaceOnUse">
<stop stop-color="white"/>
<stop offset="1" stop-color="white" stop-opacity="0"/>
</linearGradient>
<linearGradient id="paint8_linear" x1="512.701" y1="-0.0139089" x2="449.186" y2="35.3751" gradientUnits="userSpaceOnUse">
<stop stop-color="white"/>
<stop offset="1" stop-color="white" stop-opacity="0"/>
</linearGradient>
<linearGradient id="paint9_linear" x1="463.099" y1="871.877" x2="526.614" y2="836.488" gradientUnits="userSpaceOnUse">
<stop stop-color="white"/>
<stop offset="1" stop-color="white" stop-opacity="0"/>
</linearGradient>
<clipPath id="clip0">
<rect width="1300" height="900" fill="white"/>
</clipPath>
</defs>
</svg>
