<?xml version="1.0" encoding="utf-8"?>
<svg viewBox="0 12.53 371.122 289.976" xmlns="http://www.w3.org/2000/svg">
  <path d="M 166.102 87.087 C 163.097 86.654 136.617 86.662 131.77 87.087 C 131.534 87.125 131.427 87.428 131.576 87.631 C 131.624 87.697 131.693 87.739 131.77 87.753 C 136.052 88.154 163.055 88.341 166.01 87.93 C 166.42 87.89 166.564 87.156 166.102 87.087 Z" style="fill: rgb(241, 241, 241);" transform="matrix(1, 0, 0, 1, 0, 7.105427357601002e-15)"/>
  <path d="M 290.92 137.269 C 290.551 137.365 285.803 139.094 287.062 139.834 L 288.381 141.037 C 288.1 141.77 290.996 144.953 288.996 152.791 C 288.159 152.171 288.143 152.839 288.257 152.991 C 291.353 156.439 313.388 175.587 318.304 178.978 C 318.755 179.67 321.556 178.176 321.926 178.008 C 331.686 173.489 341.215 168.401 350.47 162.765 C 353.86 160.683 353.824 153.561 349.73 150.709 C 345.41 147.594 340.912 144.78 336.265 142.285 L 342.006 137.413 C 342.406 137.068 342.176 135.809 340.62 137.165 C 337.278 131.3 335.931 124.354 336.814 117.527 C 337.021 117.383 339.503 115.774 338.407 115.269 C 332.889 112.76 314.506 105.441 308.841 105.058 C 306.937 104.922 292.243 117.752 290.828 120.333 C 287.871 125.686 288.777 131.811 290.933 137.213 L 290.92 137.269 Z M 289.442 153.097 C 291.301 150.911 290.717 144.906 289.811 142.253 C 292.336 144.471 312.688 161.106 319.161 165.565 C 322.655 173.619 318.747 177.478 318.88 178.09 L 318.88 178.018 C 308.037 169.921 299.261 160.589 289.447 153.097 L 289.442 153.097 Z M 349.662 152.189 C 352.75 153.91 352.046 161.104 349.825 161.948 C 339.774 167.775 329.829 173.026 319.459 178.09 C 320.809 176.078 321.552 173.663 321.586 171.176 L 335.805 164.843 C 336.056 164.696 335.849 164.319 335.604 164.383 C 330.829 166.12 326.152 168.16 321.598 170.493 C 321.554 168.549 320.996 166.66 319.993 165.051 C 324.328 163.074 346.511 150.58 349.668 152.189 L 349.662 152.189 Z M 318.858 131.827 C 324.295 126.944 329.982 122.397 335.892 118.209 C 335.461 120.648 335.382 123.147 335.655 125.614 C 334.759 125.943 323.554 134.84 322.975 135.323 C 322.739 135.524 323.027 135.951 323.273 135.783 L 335.788 126.557 C 336.18 129.393 337.751 135.833 340.171 137.57 C 337.706 139.732 325.553 150.181 322.591 150.181 C 318.064 145.43 316.607 138.195 318.895 131.83 L 318.858 131.827 Z M 316.436 114.529 C 317.738 115.732 312.37 119.118 312.163 119.182 C 311.563 119.382 311.156 118.692 312.474 117.343 C 313.126 116.699 315.569 113.724 316.436 114.529 Z M 306.363 117.864 C 307.287 115.814 311.14 112.543 312.769 111.338 C 313.259 111.023 313.878 111.402 313.884 112.02 C 313.885 112.266 313.784 112.501 313.606 112.655 C 312.178 113.869 308.248 117.856 307.163 118.612 C 306.799 118.853 306.33 118.578 306.318 118.115 C 306.317 118.029 306.331 117.942 306.363 117.864 Z M 292.796 121.346 C 300.725 123.679 308.517 126.539 316.125 129.906 C 316.598 130.171 316.428 131.047 315.857 130.927 C 307.943 128.526 300.167 125.614 292.574 122.204 C 292.278 122.074 292.223 121.645 292.474 121.432 C 292.568 121.354 292.687 121.322 292.803 121.346 L 292.796 121.346 Z M 291.476 138.226 C 300.283 143.621 316.694 150.476 322.842 151.481 C 324.078 151.681 334.136 144.022 335.757 142.72 C 336.84 143.869 345.765 149.351 348.038 150.871 C 344.75 151.056 320.865 163.13 319.154 164.309 C 308.889 155.974 298.262 147.532 287.74 139.607 L 291.436 138.224 L 291.476 138.226 Z" style="fill: rgb(241, 241, 241);" transform="matrix(1, 0, 0, 1, 0, 7.105427357601002e-15)"/>
  <polygon points="166.091 87.085 166.102 87.091 166.113 87.093 166.091 87.085" style="fill: rgb(241, 241, 241);" transform="matrix(1, 0, 0, 1, 0, 7.105427357601002e-15)"/>
  <path d="M 196.098 48.862 C 195.986 48.827 195.866 48.837 195.76 48.894 L 195.79 48.894 C 194.709 49.626 188.384 58.902 187.116 60.679 C 185.894 58.874 184.658 57.069 183.354 55.332 C 183.117 55.011 182.615 55.404 182.799 55.759 C 184.036 57.897 185.355 59.971 186.702 62.029 C 186.924 62.366 187.362 62.197 187.546 61.94 C 188.701 60.336 196.122 50.622 196.433 49.505 C 196.501 49.227 196.353 48.94 196.098 48.862 Z" style="fill: rgb(241, 241, 241);" transform="matrix(1, 0, 0, 1, 0, 7.105427357601002e-15)"/>
  <path d="M 160.869 90.982 L 160.869 90.966 C 149.708 91.201 137.488 90.886 132.726 91.393 C 132.441 91.393 132.264 91.726 132.406 91.995 C 132.471 92.118 132.593 92.196 132.726 92.196 C 138.454 92.132 156.277 92.838 160.869 91.795 C 161.248 91.7 161.174 91.099 160.869 90.982 Z" style="fill: rgb(241, 241, 241);" transform="matrix(1, 0, 0, 1, 0, 7.105427357601002e-15)"/>
  <path d="M 161.277 70.823 C 161.632 70.823 161.758 70.148 161.336 70.083 C 157.589 69.482 135.466 70.669 130.081 71.554 C 129.797 71.554 129.619 71.886 129.762 72.155 C 129.826 72.278 129.948 72.356 130.081 72.356 C 137.325 72.42 153.782 71.142 161.24 70.854 L 161.277 70.823 Z" style="fill: rgb(241, 241, 241);" transform="matrix(1, 0, 0, 1, 0, 7.105427357601002e-15)"/>
  <path d="M 153.915 74.835 L 153.93 74.835 C 154.24 74.736 154.418 74.151 154.004 74.033 C 152.108 73.525 133.696 74.105 130.906 74.369 C 130.645 74.416 130.53 74.751 130.697 74.971 C 130.75 75.039 130.824 75.085 130.906 75.102 C 134.289 75.34 151.737 75.477 153.915 74.835 Z" style="fill: rgb(241, 241, 241);" transform="matrix(1, 0, 0, 1, 0, 7.105427357601002e-15)"/>
  <path d="M 204.974 194.28 C 204.974 194.256 204.99 194.238 204.996 194.215 L 204.996 194.191 L 204.974 194.28 Z" style="fill: rgb(241, 241, 241);" transform="matrix(1, 0, 0, 1, 0, 7.105427357601002e-15)"/>
  <path d="M 193.314 85.862 C 194.328 84.257 183.189 84.833 182.716 85.381 C 182.243 85.928 182.642 94.167 182.679 94.937 C 182.746 96.121 193.011 96.097 193.397 95.74 C 193.835 92.475 193.803 89.155 193.308 85.9 L 193.314 85.862 Z M 192.521 94.841 C 191.536 94.825 184.278 94.986 183.694 94.488 C 183.612 91.666 183.527 88.85 183.441 86.04 L 192.61 86.097 C 192.301 88.999 192.27 91.929 192.515 94.841 L 192.521 94.841 Z" style="fill: rgb(241, 241, 241);" transform="matrix(1, 0, 0, 1, 0, 7.105427357601002e-15)"/>
  <path d="M 323.589 141.611 C 326.176 139.938 328.809 138.306 331.313 136.499 C 331.669 136.24 331.268 135.566 330.906 135.807 L 323.315 141.136 C 323.071 141.312 323.317 141.772 323.589 141.611 Z" style="fill: rgb(241, 241, 241);" transform="matrix(1, 0, 0, 1, 0, 7.105427357601002e-15)"/>
  <path d="M 304.971 163.627 C 304.735 163.469 304.445 163.854 304.668 164.054 C 306.542 165.797 315.598 172.679 317.635 174.215 C 317.894 174.416 318.117 173.958 317.873 173.756 C 313.954 170.541 309.074 166.311 304.971 163.627 Z" style="fill: rgb(241, 241, 241);" transform="matrix(1, 0, 0, 1, 0, 7.105427357601002e-15)"/>
  <path d="M 185.25 78.894 C 186.212 78.942 193.731 79.833 193.656 78.475 C 193.604 77.414 193.486 69.407 192.998 69.175 L 192.983 69.175 C 192.85 67.825 183.487 68.814 182.615 68.99 C 182.088 69.087 182.295 76.812 182.332 77.767 C 182.391 79.119 184.42 78.846 185.25 78.894 Z M 192.515 69.668 C 192.486 72.476 192.53 75.296 192.611 78.11 C 189.5 77.773 186.369 77.705 183.25 77.909 C 183.33 75.172 183.248 72.432 183.006 69.708 C 184.54 69.672 191.545 69.891 192.515 69.672 L 192.515 69.668 Z" style="fill: rgb(241, 241, 241);" transform="matrix(1, 0, 0, 1, 0, 7.105427357601002e-15)"/>
  <path d="M 317.199 170.356 C 317.354 170.458 317.553 170.338 317.557 170.142 C 317.559 170.063 317.528 169.987 317.472 169.939 C 309.014 163.427 300.594 155.58 292.291 149.455 C 292.04 149.271 291.67 149.656 291.922 149.898 C 296.588 154.722 311.117 165.928 317.213 170.356 L 317.199 170.356 Z" style="fill: rgb(241, 241, 241);" transform="matrix(1, 0, 0, 1, 0, 7.105427357601002e-15)"/>
  <polygon points="340.868 158.846 340.879 158.85 340.898 158.846 340.868 158.846" style="fill: rgb(241, 241, 241);" transform="matrix(1, 0, 0, 1, 0, 7.105427357601002e-15)"/>
  <path d="M 193.619 55.984 C 193.554 55.721 193.251 55.633 193.073 55.825 C 193.033 55.869 193.005 55.923 192.99 55.984 L 192.944 63.019 L 182.709 63.076 C 182.849 62.015 181.872 54.53 181.716 53.428 C 184.601 53.575 187.493 53.489 190.366 53.172 C 190.56 53.128 190.642 52.873 190.509 52.71 C 190.486 52.68 190.457 52.658 190.425 52.642 C 189.751 52.391 181.256 51.589 181.449 53.196 C 180.604 53.132 181.835 63.268 181.835 63.284 C 182.278 64.522 184.137 64.086 185.129 64.086 C 186.122 64.086 192.9 64.287 193.454 64.038 C 194.35 63.637 193.848 57.219 193.639 56 L 193.619 55.984 Z" style="fill: rgb(241, 241, 241);" transform="matrix(1, 0, 0, 1, 0, 7.105427357601002e-15)"/>
  <path d="M 372.188 237.929 L 372.225 237.889 C 348.683 239.445 325.135 240.761 301.584 241.836 C 301.285 238.179 300.684 234.561 299.792 231.023 C 323.204 230.361 346.617 229.585 370.026 228.693 C 370.44 228.639 370.645 228.119 370.397 227.756 C 370.307 227.628 370.173 227.543 370.026 227.525 C 346.528 228.46 323.025 229.24 299.518 229.866 C 294.06 208.893 282.285 188.925 268.64 173.13 C 268.219 167.791 268.197 165.003 266.094 159.752 C 262.029 149.632 257.548 147.518 257.651 149.925 C 257.658 150.56 257.756 151.192 257.939 151.798 C 257.2 150.795 251.754 144.652 250.644 147.971 C 248.977 146.8 246.902 146.547 245.039 147.287 C 241.587 141.234 235.708 141.27 232.064 139.152 C 225.005 135.069 228.264 122.351 233.448 117.577 C 233.448 117.577 255.751 117.118 255.777 116.813 C 256.169 111.145 260.621 24.754 260.621 24.754 C 205.674 23.572 146.551 24.673 91.997 25.957 C 91.627 25.957 91.302 26.222 91.346 26.585 C 94.634 56.97 102.705 119.172 102.705 119.172 C 104.039 119.741 224.835 117.702 232.019 117.589 C 228.928 121.244 227.241 126.043 227.302 131.005 C 227.671 143.641 236.929 138.256 244.487 147.508 C 239.584 149.8 238.925 156.551 240.828 161.375 C 241.161 162.311 241.621 163.19 242.19 163.982 C 242.26 165.863 242.752 167.697 243.62 169.327 C 245.991 174.207 250.197 175.902 250.433 176.618 C 250.359 187.96 252.617 201.811 254.707 212.88 C 247.671 208.901 226.793 199.296 205.316 198.62 C 206.53 187.133 215.677 185.677 214.426 178.002 C 218.243 177.845 222.068 177.671 225.897 177.478 C 226.86 177.43 225.816 174.269 225.712 173.724 C 224.151 166.311 222.593 158.906 221.039 151.505 C 220.803 150.502 219.712 143.773 218.822 143.773 L 206.907 143.998 C 204.285 141.288 198.122 140.291 195.605 143.434 C 191.939 135.718 180.502 136.836 180.133 144.351 C 176.991 142.044 172.372 141.585 169.533 144.714 C 169.245 144.85 113.336 145.663 105.043 146.032 C 104.764 146.08 104.618 146.419 104.762 146.683 C 104.91 147.736 100.096 172.486 99.518 178.435 C 99.436 179.287 107.879 179.167 108.827 179.167 C 96.897 194.352 86.15 211.474 82.907 231.515 C 62.765 231.178 42.623 230.648 22.482 230.712 C 22.197 230.712 22.02 231.045 22.162 231.314 C 22.227 231.436 22.349 231.515 22.482 231.515 C 42.522 232.471 62.63 232.56 82.693 232.73 C 82.101 236.701 81.854 240.723 81.954 244.746 C 61.997 244.289 42.056 243.605 22.103 243.252 C 21.659 243.252 21.593 244.008 22.044 244.008 C 42.001 245.125 62 245.52 81.998 245.849 C 82.508 256.724 86.462 270.093 96.306 274.979 C 100.349 283.614 108.925 291.363 118.399 289.151 C 118.131 290.704 117.858 292.312 117.592 293.921 C 117.473 294.635 118.473 294.948 118.591 294.223 C 121.295 278.341 124.079 262.376 128.878 247.046 C 129.026 246.571 128.352 246.379 128.197 246.846 C 123.568 260.173 120.968 274.161 118.569 288.114 C 108.792 289.651 100.987 282.9 96.949 273.75 C 92.551 263.98 91.993 252.694 95.401 242.472 C 100.451 228.432 113.909 218.333 127.069 211.556 C 140.483 204.647 154.895 200.295 169.67 198.694 C 170.714 209.41 182.051 213.035 190.71 212.473 C 199.369 211.911 204.479 209.047 205.218 199.571 C 205.33 199.667 236.436 200.327 263.283 219.788 C 271.172 225.502 278.332 232.85 282.54 242.183 C 286.635 251.194 288.065 262.167 284.414 271.628 C 279.14 285.294 269.483 287.272 263.099 288.509 C 260.852 273.808 256.498 259.578 250.197 246.338 C 250.034 245.993 249.515 246.21 249.672 246.579 C 256.249 261.975 260.739 278.323 263.002 295.116 C 263.075 295.639 263.971 295.776 263.971 295.116 C 263.889 293.285 263.668 291.464 263.306 289.675 C 270.278 289.001 276.728 285.381 281.265 279.594 C 296.114 275.511 302.499 258.228 301.647 242.955 C 325.237 241.908 348.816 240.582 372.384 238.976 C 372.973 238.915 372.797 237.929 372.188 237.929 Z M 102.79 106.675 L 102.79 106.707 C 99.043 81.185 96.154 55.799 92.812 30.267 C 148.233 29.23 205.127 29.665 259.798 28.663 L 255.533 103.903 C 232.45 104.641 105.752 105.429 102.79 106.675 Z M 214.217 177.051 C 213.877 175.996 213.247 175.081 212.411 174.432 C 213.361 172.775 213.873 170.868 213.89 168.918 L 214.889 168.918 C 215.353 171.592 215.817 174.271 216.283 176.957 L 214.217 177.051 Z M 212.655 162.35 C 212.977 162.079 213.273 161.776 213.537 161.441 C 213.966 163.587 214.337 165.725 214.706 167.873 L 213.906 167.873 C 213.973 165.94 213.539 164.026 212.654 162.35 L 212.655 162.35 Z M 225.304 176.538 C 222.469 176.682 219.637 176.814 216.804 176.939 C 216.589 174.237 216.092 171.568 215.656 168.9 C 218.314 169.006 220.976 168.93 223.626 168.673 C 224.179 171.297 224.737 173.918 225.302 176.54 L 225.304 176.538 Z M 223.434 167.775 L 223.451 167.775 L 223.436 167.775 L 215.49 167.847 C 215.041 165.34 214.594 162.837 214.148 160.34 L 221.828 160.099 L 223.434 167.775 Z M 221.599 159.151 L 214.372 159.383 C 214.664 157.462 214.117 155.502 212.894 154.078 C 212.768 153.477 212.657 152.849 212.524 152.237 L 220.123 152.061 L 221.599 159.151 Z M 218.777 144.826 C 219.178 146.9 219.541 148.982 219.919 151.064 L 212.312 151.2 C 211.933 149.092 211.439 147.012 210.833 144.971 L 218.777 144.826 Z M 211.802 153.338 C 210.904 152.889 209.885 152.805 208.936 153.106 C 209.013 152.857 209.08 152.606 209.135 152.349 L 211.578 152.301 L 211.802 153.338 Z M 209.987 144.987 C 210.329 147.091 210.782 149.174 211.342 151.224 L 209.29 151.264 C 209.508 149.046 208.945 146.82 207.712 145.035 L 209.987 144.987 Z M 165.202 145.853 L 165.226 145.853 L 168.781 145.781 C 168.029 147.046 167.763 148.581 168.042 150.057 L 164.901 151.038 C 165.041 149.383 165.202 147.458 165.202 145.853 Z M 164.202 145.853 L 164.158 151.455 C 163.844 151.653 163.543 151.874 163.254 152.115 L 154.508 152.271 C 154.597 150.189 154.543 148.105 154.346 146.034 L 164.202 145.853 Z M 160.337 160.394 L 160.307 160.418 L 154.508 160.418 L 154.508 153.37 L 162.131 153.226 C 160.501 155.157 159.834 157.825 160.337 160.388 L 160.337 160.394 Z M 154.536 169.678 L 154.536 169.694 L 159.588 169.63 C 159.664 171.377 160.263 173.05 161.292 174.398 C 160.045 175.318 159.339 176.887 159.433 178.521 L 154.444 178.521 C 154.505 175.573 154.536 172.625 154.536 169.672 L 154.536 169.678 Z M 160.009 167.271 C 159.843 167.687 159.727 168.124 159.662 168.573 L 154.543 168.637 L 154.543 161.403 L 160.606 161.403 C 161.009 162.598 161.732 163.635 162.68 164.385 C 161.53 165.011 160.595 166.02 160.009 167.261 L 160.009 167.271 Z M 153.819 178.573 C 146.187 178.625 138.559 178.625 130.933 178.573 C 131.162 175.126 130.955 172.957 132.984 169.981 L 153.625 169.722 C 153.669 172.671 153.73 175.613 153.819 178.563 L 153.819 178.573 Z M 133.812 168.886 C 135.743 166.776 137.199 164.211 138.072 161.393 L 142.682 161.393 C 142.645 163.846 142.645 166.305 142.645 168.764 L 142.645 168.78 L 133.812 168.886 Z M 143.872 146.254 L 153.551 146.07 C 153.426 148.148 153.405 150.233 153.492 152.315 L 143.761 152.492 C 143.813 150.42 143.835 148.338 143.872 146.254 Z M 143.732 153.593 L 143.761 153.593 L 153.522 153.408 L 153.522 160.428 L 143.554 160.428 C 143.621 158.154 143.672 155.881 143.732 153.595 L 143.732 153.593 Z M 143.525 161.375 L 153.529 161.375 C 153.547 163.782 153.575 166.192 153.61 168.609 L 143.198 168.738 C 143.353 166.289 143.451 163.838 143.525 161.377 L 143.525 161.375 Z M 134.208 146.431 L 143.057 146.262 L 142.867 152.51 L 133.845 152.67 C 134.11 150.602 134.232 148.519 134.208 146.433 L 134.208 146.431 Z M 133.755 153.763 L 142.828 153.585 L 142.673 160.404 L 138.295 160.404 C 138.532 159.311 138.933 157.502 137.724 156.9 C 136.377 156.224 135.392 159.295 133.171 160.38 C 133.363 158.178 133.557 155.976 133.755 153.773 L 133.755 153.763 Z M 125.853 146.599 L 125.853 146.639 L 133.489 146.487 C 133.217 148.555 133.049 150.637 132.984 152.726 L 132.489 152.726 C 133.282 150.627 128.993 149.261 125.282 152.726 C 125.386 151.669 125.913 147.285 125.853 146.601 L 125.853 146.599 Z M 132.903 153.836 L 132.872 153.836 C 132.748 156.016 132.624 158.194 132.502 160.37 L 129.653 160.37 C 129.098 158.601 129.653 154.461 131.131 153.836 L 132.87 153.836 L 132.87 153.787 L 132.903 153.836 Z M 124.913 146.655 L 124.601 152.873 L 121.158 152.937 C 119.787 149.866 120.646 147.51 119.255 146.772 L 124.913 146.655 Z M 124.174 154.002 C 123.741 154.576 123.379 155.207 123.095 155.881 L 121.716 154.056 L 124.174 154.002 Z M 112.358 146.908 L 118.285 146.804 C 116.463 147.768 116.158 151.168 116.158 153.033 L 113.366 153.106 C 112.425 152.237 112.018 153.154 111.322 153.154 L 112.321 146.908 L 112.358 146.908 Z M 116.455 157.101 L 116.455 157.133 L 116.455 157.097 C 115.455 156.349 114.646 155.338 114.105 154.158 L 116.185 154.158 C 116.2 155.143 116.291 156.126 116.455 157.097 L 116.455 157.101 Z M 110.278 160.123 L 110.293 160.091 C 110.579 158.122 110.873 156.158 111.174 154.199 C 111.006 156.204 111.24 158.226 111.863 160.123 L 110.278 160.123 Z M 112.115 161.096 C 112.87 163.838 113.9 166.353 114.483 169.135 C 112.673 169.167 110.858 169.207 109.041 169.255 C 109.411 166.537 109.781 163.812 110.15 161.096 L 112.115 161.096 Z M 105.405 146.94 L 105.405 146.884 C 107.426 146.924 109.441 146.884 111.462 146.884 C 111.122 148.974 110.79 151.056 110.455 153.146 C 108.434 153.202 106.412 153.282 104.398 153.37 C 104.858 151.252 105.194 149.104 105.405 146.94 Z M 104.256 154.247 L 104.256 154.191 L 110.293 154.191 C 110.004 156.152 109.707 158.106 109.418 160.067 L 103.285 160.067 C 103.605 158.13 103.93 156.184 104.256 154.247 Z M 103.13 160.831 L 103.16 160.831 C 105.192 160.952 107.225 161.008 109.258 161.048 C 108.908 163.772 108.502 166.505 108.169 169.239 C 106.004 169.303 103.842 169.391 101.681 169.504 C 102.173 166.616 102.666 163.723 103.16 160.831 L 103.13 160.831 Z M 107.293 178.226 C 104.915 178.186 102.539 178.186 100.161 178.186 L 100.183 178.106 C 100.647 175.43 101.125 172.751 101.62 170.067 L 108.034 170.244 C 107.656 172.887 107.408 175.553 107.293 178.226 Z M 107.818 178.242 L 107.84 178.242 L 108.936 170.244 L 114.685 170.244 C 114.735 170.777 114.735 171.315 114.685 171.848 C 112.941 173.986 111.211 176.13 109.5 178.28 L 107.818 178.242 Z M 95.229 239.882 L 95.229 239.866 C 90.855 250.679 91.01 263.017 95.65 273.7 C 77.764 260.573 81.578 231.537 89.182 213.041 C 95.412 197.866 105.285 184.905 115.385 172.59 C 116.864 170.765 112.083 158.491 111.928 155.556 C 111.81 153.33 112.667 152.873 113.406 154.455 C 114.066 155.815 115.243 157.841 116.755 158.226 C 117.355 160.123 117.806 159.504 117.739 159.207 C 117.109 155.895 116.021 151.104 118.057 148.146 C 119.536 146.007 119.473 149.923 119.621 150.695 C 119.968 152.51 121.509 156.04 122.819 156.649 C 122.361 158.074 123.132 157.574 123.189 157.39 C 125.811 149.906 133.831 150.959 131.246 152.817 C 129.841 153.717 128.915 155.29 128.751 157.053 C 127.796 164.119 132.942 162.969 136.675 158.13 C 138.216 156.136 138.304 160.436 135.837 164.792 C 133.757 168.467 130.92 169.793 130.588 174.62 C 129.664 186.454 127.446 200.537 125.929 210.939 C 113.752 217.373 101.19 226.103 95.229 239.882 Z M 126.975 210.405 L 126.975 210.381 C 128.775 200.176 130.063 189.875 130.833 179.52 L 159.498 179.52 C 160.571 186.249 168.258 187.141 169.504 197.599 C 154.75 199.157 140.359 203.492 126.975 210.405 Z M 204.992 194.215 C 204.534 195.794 204.236 197.42 204.103 199.071 C 203.355 207.575 200.038 210.389 191.327 211.191 C 182.062 212.012 172.071 208.853 170.672 198.034 C 169.434 188.407 166.606 189.263 162.027 182.518 C 160.665 180.501 159.44 176.786 161.983 175.22 C 163.256 176.734 164.849 177.889 166.627 178.587 C 170.62 188.307 171.974 199.528 183.574 200.766 C 205.999 203.032 200.984 189.777 208.087 178.21 C 209.444 177.502 210.676 176.538 211.724 175.364 C 213.382 176.869 213.877 179.408 212.923 181.514 C 211.214 186.167 206.866 188.032 204.996 194.215 L 204.992 194.215 Z M 250.683 149.223 L 250.655 149.223 C 251.283 150.739 251.919 152.257 252.558 153.781 C 251.655 152.518 247.211 147.253 245.721 150.059 C 244.982 151.521 246.558 153.717 247.199 155.027 C 244.716 155.496 242.497 156.992 241.007 159.199 C 238.736 149.864 247.087 145.203 250.683 149.223 Z M 242.345 162.889 C 241.976 161.94 241.606 160.984 241.236 160.035 C 242.877 157.927 245.091 156.439 247.562 155.783 C 248.604 158.112 249.28 160.613 249.561 163.186 C 250.058 168.33 246.436 164.656 244.681 162.897 C 244.003 162.213 242.848 161.804 242.345 162.889 Z M 282.344 278.026 L 282.324 278.06 L 282.339 278.028 C 288.464 268.716 288.719 256.7 285.17 246.19 C 280.14 231.326 268.178 220.919 255.655 213.642 C 253.24 201.512 251.673 189.201 250.967 176.816 C 251.004 174.937 245.086 173.641 243.265 166.255 C 242.923 164.897 242.243 161.383 244.479 163.908 C 246.715 166.433 250.522 168.762 250.345 163.216 C 250.138 156.656 246.028 152.291 246.39 150.805 C 246.858 148.948 250.285 152.444 250.825 153.055 C 252.268 154.776 253.578 156.625 254.737 158.585 C 254.944 158.916 255.441 158.649 255.256 158.288 C 254.84 157.486 254.395 156.684 253.922 155.881 C 254.232 155.197 250.901 148.831 251.485 148.228 C 252.248 147.44 254.744 149.708 255.328 150.253 C 258.425 153.156 258.566 155.093 259.617 156.611 C 259.658 156.654 259.71 156.678 259.767 156.684 C 259.905 156.696 260.027 156.585 260.04 156.435 C 259.822 155.41 259.442 154.435 258.913 153.557 C 258.728 152.408 257.899 150.681 258.359 149.997 C 258.588 149.78 259.846 150.817 260.009 150.961 C 261.229 152.227 262.243 153.707 263.01 155.342 C 268.661 165.839 266.964 172.59 267.92 173.605 C 281.954 190.76 296.944 215.881 299.973 238.54 C 302.076 254.158 297.515 272.48 282.344 278.026 Z" style="fill: rgb(241, 241, 241);" transform="matrix(1, 0, 0, 1, 0, 7.105427357601002e-15)"/>
  <path d="M 232.204 130.215 L 232.226 130.215 C 232.655 130.071 232.485 129.413 232.101 129.349 C 225.367 129.493 218.229 129.26 211.589 129.549 C 211.07 129.549 211.144 130.409 211.589 130.498 C 214.956 131.105 229.318 131.194 232.204 130.215 Z" style="fill: rgb(241, 241, 241);" transform="matrix(1, 0, 0, 1, 0, 7.105427357601002e-15)"/>
  <path d="M 324.827 166.868 C 327.345 165.685 339.639 160.316 341.077 159.415 C 341.262 159.287 341.249 158.99 341.055 158.88 C 341.001 158.85 340.938 158.838 340.879 158.85 C 337.778 159.556 327.732 164.74 324.605 166.433 C 324.337 166.577 324.561 166.997 324.827 166.868 Z" style="fill: rgb(241, 241, 241);" transform="matrix(1, 0, 0, 1, 0, 7.105427357601002e-15)"/>
  <path d="M 200.862 119.826 C 187.803 120.026 174.744 120.237 161.687 120.453 C 163.402 141.039 201.381 141.352 200.862 119.826 Z" style="fill: rgb(241, 241, 241);" transform="matrix(1, 0, 0, 1, 0, 7.105427357601002e-15)"/>
  <path d="M 200.901 75.575 C 200.901 75.759 201.038 75.91 201.21 75.912 C 207.461 76.08 220.71 76.514 225.716 75.757 C 226.139 75.693 225.999 75.011 225.637 75.011 C 218.563 74.947 208.342 75.091 201.195 75.236 L 201.21 75.236 C 201.038 75.236 200.899 75.388 200.901 75.575 Z" style="fill: rgb(241, 241, 241);" transform="matrix(1, 0, 0, 1, 0, 7.105427357601002e-15)"/>
  <path d="M 147.235 45.468 L 147.25 45.468 C 147.76 45.468 147.546 44.666 147.122 44.593 C 134.392 44.995 120.528 45.291 108.116 45.596 C 107.874 45.636 107.763 45.945 107.916 46.152 C 107.966 46.22 108.036 46.264 108.116 46.278 C 117.194 47.076 135.562 46.007 147.235 45.468 Z" style="fill: rgb(241, 241, 241);" transform="matrix(1, 0, 0, 1, 0, 7.105427357601002e-15)"/>
  <path d="M 154.418 40.975 L 154.44 40.975 C 154.863 40.975 154.994 40.173 154.521 40.115 C 150.382 39.569 109.559 40.299 106.722 40.967 C 106.442 41.031 106.456 41.587 106.722 41.587 C 117.091 41.465 142.205 40.783 154.418 40.975 Z" style="fill: rgb(241, 241, 241);" transform="matrix(1, 0, 0, 1, 0, 7.105427357601002e-15)"/>
  <polygon points="74.083 184.231 74.083 184.229 74.083 184.215 74.083 184.231" style="fill: rgb(241, 241, 241);" transform="matrix(1, 0, 0, 1, 0, 7.105427357601002e-15)"/>
  <path d="M 74.865 184.584 C 76.288 181.728 77.378 178.69 78.108 175.541 C 78.823 173.335 78.4 170.884 76.999 169.111 C 77.676 167.285 78.021 165.336 78.021 163.37 C 77.652 160.099 74.46 160.3 72.735 162.791 C 65.801 172.819 58.166 188.78 58.373 201.207 C 58.247 201.795 58.528 202.463 59.018 201.963 C 67.215 193.146 73.278 182.266 76.667 170.292 C 78.984 174.02 75.408 180.451 74.08 184.229 C 73.928 184.725 74.619 185.013 74.865 184.584 Z M 59.079 200.407 L 59.049 200.407 C 59.18 198.181 59.465 195.968 59.901 193.788 L 62.782 195.902 C 61.583 197.447 60.345 198.933 59.079 200.407 Z M 76.245 168.276 L 76.245 168.252 C 74.996 167.111 73.496 166.341 71.892 166.018 C 72.502 164.788 73.246 163.643 74.109 162.608 C 74.939 161.764 76.532 161.405 77.005 162.851 C 77.179 164.696 76.916 166.559 76.245 168.266 L 76.245 168.276 Z" style="fill: rgb(241, 241, 241);" transform="matrix(1, 0, 0, 1, 0, 7.105427357601002e-15)"/>
  <path d="M 123.279 66.12 C 122.472 66.497 117.754 74.159 116.88 75.493 C 115.821 73.948 114.6 72.542 113.244 71.305 C 113.088 71.215 112.896 71.279 112.813 71.447 C 112.776 71.521 112.767 71.608 112.785 71.69 C 113.866 73.555 115.121 75.296 116.533 76.885 C 116.755 77.121 117.115 77.113 117.327 76.866 C 117.357 76.832 117.385 76.794 117.407 76.754 L 123.331 67.793 C 124.19 66.497 123.946 65.823 123.331 66.12 L 123.279 66.12 Z" style="fill: rgb(241, 241, 241);" transform="matrix(1, 0, 0, 1, 0, 7.105427357601002e-15)"/>
  <path d="M 234.19 55.599 C 234.582 55.599 234.649 54.796 234.235 54.746 C 222.7 54.116 211.14 54.291 199.626 55.268 C 199.24 55.308 199.284 56.016 199.669 56 C 208.224 55.911 224.635 56.216 234.19 55.599 Z" style="fill: rgb(241, 241, 241);" transform="matrix(1, 0, 0, 1, 0, 7.105427357601002e-15)"/>
  <path d="M 123.231 78.274 L 123.217 78.315 C 123.956 77.994 122.477 72.029 122.276 71.08 C 122.209 70.844 121.932 70.773 121.777 70.954 C 121.725 71.014 121.696 71.094 121.698 71.176 C 121.905 73.331 122.143 75.485 122.505 77.607 C 119.425 77.857 116.625 77.833 113.619 77.978 C 113.064 75.37 112.573 71.868 111.819 69.375 C 114.143 69.596 116.481 69.612 118.809 69.424 C 120.343 69.424 120.24 68.379 118.92 68.403 C 118.135 68.403 111.514 68.258 111.573 69.111 C 110.714 69.054 112.536 77.518 112.656 78.09 C 112.698 78.291 112.857 78.441 113.048 78.459 C 113.21 79.416 122.936 79.265 123.231 78.274 Z" style="fill: rgb(241, 241, 241);" transform="matrix(1, 0, 0, 1, 0, 7.105427357601002e-15)"/>
  <path d="M 235.186 71.243 C 235.155 71.078 235.026 70.962 234.872 70.958 C 223.68 70.635 211.698 71.231 200.35 71.199 C 200.025 71.199 199.996 71.8 200.35 71.834 C 210.29 72.564 225.666 73.016 234.954 71.672 L 234.931 71.672 C 235.111 71.63 235.225 71.437 235.186 71.243 Z" style="fill: rgb(241, 241, 241);" transform="matrix(1, 0, 0, 1, 0, 7.105427357601002e-15)"/>
  <path d="M 113.24 63.774 L 113.24 63.758 C 115.832 63.836 118.425 63.707 121.001 63.37 C 122.609 63.822 120.166 52.881 119.868 52.365 C 119.779 52.173 119.589 52.063 119.395 52.093 C 117.732 52.093 110.012 51.98 108.914 52.341 C 107.596 51.192 109.537 61.072 109.803 62.261 C 110.256 64.271 111.529 63.79 113.24 63.774 Z M 109.138 53.057 L 109.138 53.041 C 112.543 53.479 115.982 53.529 119.399 53.192 L 120.583 62.468 L 110.897 62.999 C 110.989 62.334 109.374 54.367 109.138 53.057 Z" style="fill: rgb(241, 241, 241);" transform="matrix(1, 0, 0, 1, 0, 7.105427357601002e-15)"/>
  <path d="M 226.437 59.81 C 226.721 59.81 226.899 59.475 226.756 59.209 C 226.69 59.084 226.568 59.008 226.437 59.008 C 224.14 58.493 204.432 59.257 200.35 59.634 C 200.033 59.634 200.033 60.236 200.35 60.236 C 202.566 60.356 224.229 60.412 226.437 59.81 Z" style="fill: rgb(241, 241, 241);" transform="matrix(1, 0, 0, 1, 0, 7.105427357601002e-15)"/>
  <path d="M 71.254 123.436 C 71.624 123.378 74.211 121.831 74.832 124.425 C 75.676 128.001 79.001 125.855 79.549 123.137 C 80.231 119.753 77.277 117.108 73.773 117.12 C 66.67 117.116 68.3 123.869 71.254 123.436 Z M 73.773 117.888 C 77.757 118.025 80.224 122.124 77.794 124.537 C 75.743 126.555 75.994 123.644 74.95 122.624 C 72.965 120.686 71.365 123.057 70.24 122.022 C 67.928 119.922 72.358 117.84 73.773 117.888 Z" style="fill: rgb(241, 241, 241);" transform="matrix(1, 0, 0, 1, 0, 7.105427357601002e-15)"/>
  <path d="M 117.054 85.22 C 114.151 85.22 114.04 84.705 114.41 87.759 C 114.52 88.636 115.084 94.737 116.054 94.779 C 116.254 95.736 124.554 95.415 125.615 95.062 C 127.031 95.062 125.615 90.31 125.549 89.771 C 124.388 82.799 125.905 84.955 117.054 85.22 Z M 116.522 94.334 C 116.054 91.795 115.707 88.451 115.043 86.04 C 118.065 86.389 121.117 86.297 124.116 85.766 C 124.309 88.555 124.71 91.323 125.316 94.045 C 122.431 94.107 119.439 94.262 116.522 94.334 Z" style="fill: rgb(241, 241, 241);" transform="matrix(1, 0, 0, 1, 0, 7.105427357601002e-15)"/>
  <path d="M 238.086 39.794 C 234.693 39.449 185.732 39.866 179.525 40.307 C 179.288 40.352 179.185 40.658 179.338 40.857 C 179.386 40.919 179.451 40.961 179.525 40.975 C 184.777 41.272 234.331 41.128 238.102 40.686 C 238.418 40.634 238.564 40.229 238.365 39.958 C 238.3 39.868 238.206 39.81 238.102 39.794 L 238.086 39.794 Z" style="fill: rgb(241, 241, 241);" transform="matrix(1, 0, 0, 1, 0, 7.105427357601002e-15)"/>
  <path d="M 154.693 54.544 L 154.715 54.576 C 155.144 54.479 154.981 53.846 154.612 53.773 L 126.548 54.536 C 126.312 54.58 126.208 54.887 126.362 55.085 C 126.41 55.147 126.474 55.189 126.548 55.203 C 133.578 55.711 148.567 55.879 154.693 54.544 Z" style="fill: rgb(241, 241, 241);" transform="matrix(1, 0, 0, 1, 0, 7.105427357601002e-15)"/>
  <path d="M 265.985 110.919 C 266.118 112.447 267.532 127.648 268.051 128.741 C 271.747 136.563 285.336 136.779 285.641 125.195 C 286.153 120.381 287.938 106.562 287.241 103.104 C 287.441 101.979 288.507 97.075 288.719 94.504 C 288.719 94.103 289.458 82.639 287.98 84.376 C 286.007 87.232 284.257 90.262 282.751 93.435 C 282.485 94.639 282.224 95.842 281.958 97.045 C 281.136 96.716 280.284 96.48 279.417 96.339 C 279.365 95.537 278.863 91.516 278.602 89.907 C 277.336 87.232 276.026 84.819 274.99 82.031 C 273.419 77.833 273.382 77.761 272.946 82.368 C 272.271 89.49 272.05 89.506 272.863 96.572 C 264.494 98.445 265.368 103.806 265.976 110.896 L 265.985 110.919 Z M 286.204 88.796 L 286.219 88.796 C 286.67 89.28 287.295 89.526 287.928 89.47 L 287.928 94.526 C 286.352 94.681 284.785 94.143 283.58 93.032 C 284.504 91.65 285.362 90.224 286.219 88.796 L 286.204 88.796 Z M 283.543 94.071 C 284.77 95.006 286.236 95.503 287.736 95.493 C 287.13 99.216 286.522 102.936 286.042 106.683 C 285.412 109.125 282.39 110.01 280.352 110.309 C 281.561 105.074 282.486 99.392 283.543 94.071 Z M 279.848 108.861 C 279.761 109.368 279.702 109.882 279.672 110.397 L 275.169 110.509 L 273.236 91.626 C 274.934 92.18 276.775 91.785 278.153 90.573 C 278.153 90.573 279.425 108.636 279.84 108.861 L 279.848 108.861 Z M 273.539 85.194 C 274.106 85.362 274.714 85.268 275.213 84.929 L 277.752 89.855 C 276.403 90.942 274.664 91.281 273.051 90.772 C 273.02 88.898 273.181 87.029 273.532 85.196 L 273.539 85.194 Z M 286.352 108.297 L 286.352 108.313 C 286.012 113.353 285.412 124.019 284.227 128.795 C 282.085 135.012 272.828 135.097 268.755 128.747 C 267.979 121.779 267.205 114.814 266.436 107.846 C 269.895 113.404 283.324 112.736 286.345 108.299 L 286.352 108.297 Z" style="fill: rgb(241, 241, 241);" transform="matrix(1, 0, 0, 1, 0, 7.105427357601002e-15)"/>
  <path d="M 37.926 130.47 C 40.739 132.064 43.708 133.31 46.777 134.182 C 40.896 142.977 57.761 155.54 73.202 148.845 C 80.283 145.783 87.347 136.031 80.424 129.27 C 87.889 122.784 90.43 113.436 90.11 103.227 C 89.607 87.43 83.181 75.797 68.447 72.045 C 61.195 70.2 53.592 70.842 46.689 73.878 C 45.75 72.067 44.804 70.262 43.852 68.463 C 44.758 67.927 45.682 67.438 46.624 66.993 C 49.067 66.092 48.319 64.155 46.883 64.726 C 18.544 75.944 12.004 116.346 37.926 130.47 Z M 47.007 132.768 L 47.007 132.736 C 46.487 130.815 47.866 128.773 47.228 126.539 C 45.75 121.336 39.549 124.342 37.989 120.847 C 36.263 117.004 40.848 116.346 41.781 113.612 C 42.106 112.627 41.923 111.53 41.3 110.734 C 38.626 107.124 32.479 110.935 34.227 102.511 C 35.561 96.145 41.212 93.138 45.336 95.958 C 49.461 98.778 51.905 100.646 57.09 97.35 C 65.733 91.835 64.667 103.379 62.03 106.859 C 60.624 108.748 58.068 108.652 56.106 109.456 C 49.721 112.052 49.751 116.731 54.823 117.88 C 56.787 118.323 59.282 118.113 60.831 119.721 C 64.977 124.134 56.386 133.516 53.676 135.043 C 52.192 134.754 47.748 133.781 47.007 132.768 Z M 70.439 73.772 C 81.327 77.438 87.148 85.976 88.63 98.203 C 89.364 103.474 89.181 108.849 88.088 114.047 C 87.645 114.715 81.408 116.572 79.394 113.759 C 77.838 111.488 77.371 108.552 78.134 105.848 C 79.335 102.481 83.423 99.514 82.157 96.049 C 80.424 91.283 75.349 97.794 73.202 96.45 C 69.996 94.48 76.009 90.581 69.137 89.215 C 66.588 88.7 64.537 89.833 62.669 86.809 C 58.395 79.873 69.506 73.844 70.43 73.804 L 70.439 73.772 Z M 49.407 82.647 L 49.407 82.663 C 49.682 83.116 50.307 83.076 50.53 82.591 C 50.615 82.41 50.623 82.2 50.555 82.013 C 49.433 79.642 48.311 77.27 47.191 74.891 C 54.04 71.905 61.583 71.343 68.743 73.286 C 59.583 76.606 58.426 87.908 64.951 89.853 C 66.367 90.288 72.648 89.685 71.55 92.595 C 70.654 94.613 71.624 97.021 73.596 97.683 C 76.183 98.183 78.954 93.945 80.852 95.657 C 84.178 98.666 75.493 103.311 76.972 110.022 C 78.08 115.15 80.03 116.783 84.838 116.107 C 85.891 116.007 86.917 115.67 87.845 115.118 C 83.861 130.207 68.996 137.201 55.42 135.351 C 58.168 132.612 62.42 127.2 62.767 123.229 C 63.382 116.342 56.087 117.716 53.406 116.187 C 49.74 114.106 54.999 110.69 58.375 109.886 C 59.487 109.697 60.563 109.314 61.56 108.748 C 67.093 105.058 65.574 90.228 57.53 95.712 C 50.665 100.383 48.533 96.404 45.334 94.619 C 40.218 91.789 33.188 96.251 32.856 104.715 C 32.649 110.423 36.98 109.21 39.521 110.632 C 40.458 111.013 41.005 112.072 40.814 113.139 C 40.223 115.144 37.542 115.546 36.801 117.952 C 36.2 119.91 36.917 122.058 38.534 123.145 C 40.936 124.657 45.229 123.346 46.251 126.972 C 46.748 128.733 45.77 130.542 45.881 132.325 C 36.285 128.594 29.439 119.322 28.173 108.347 C 26.565 94.697 34.223 81.441 45.495 75.677 C 46.659 77.978 48.132 80.388 49.407 82.647 Z M 32.743 77.302 C 35.511 74.179 38.702 71.535 42.208 69.464 C 43.241 71.174 44.185 72.949 45.037 74.777 C 33.138 80.753 25.982 94.197 27.151 108.371 C 27.927 116.394 31.782 123.689 37.771 128.468 C 20.151 117.688 19.41 92.655 32.743 77.302 Z" style="fill: rgb(241, 241, 241);" transform="matrix(1, 0, 0, 1, 0, 7.105427357601002e-15)"/>
  <path d="M 229.953 91.45 L 229.953 91.5 C 228.362 91.131 204.602 91.008 201.241 91.5 C 200.871 91.564 200.936 92.136 201.276 92.192 C 202.551 92.392 227.392 92.85 229.998 92.256 C 230.282 92.236 230.441 91.891 230.284 91.632 C 230.212 91.512 230.084 91.444 229.953 91.454 L 229.953 91.45 Z" style="fill: rgb(241, 241, 241);" transform="matrix(1, 0, 0, 1, 0, 7.105427357601002e-15)"/>
  <path d="M 237.894 45.299 L 237.894 45.332 C 220.052 45.558 197.011 44.89 180.926 45.332 C 180.48 45.332 180.517 46.007 180.926 46.056 C 187.672 46.858 232.457 46.804 237.894 46.16 C 238.112 46.128 238.265 45.907 238.235 45.671 C 238.21 45.478 238.071 45.326 237.894 45.299 Z" style="fill: rgb(241, 241, 241);" transform="matrix(1, 0, 0, 1, 0, 7.105427357601002e-15)"/>
  <path d="M 235.879 87.087 L 235.879 87.055 C 225.058 86.805 211.548 87.521 200.031 87.2 C 199.705 87.2 199.624 87.721 199.964 87.753 C 207.043 88.517 229.19 89.298 235.878 87.89 C 236.286 87.807 236.338 87.087 235.879 87.087 Z" style="fill: rgb(241, 241, 241);" transform="matrix(1, 0, 0, 1, 0, 7.105427357601002e-15)"/>
</svg>