<?xml version="1.0" encoding="utf-8"?>
<svg viewBox="23.27 8.353 230.31 180.788" xmlns="http://www.w3.org/2000/svg">
  <defs>
    <radialGradient gradientUnits="userSpaceOnUse" cx="136.934" cy="97.852" r="95.002" id="gradient-1">
      <stop offset="0" style="stop-color: rgba(0, 110, 255, 1)"/>
      <stop offset="1" style="stop-color: rgba(0, 66, 153, 1)"/>
    </radialGradient>
  </defs>
  <path class="a" d="M 106.332 55.879 C 107.094 55.35 107.897 54.882 108.732 54.479 C 108.794 54.479 108.832 54.412 108.801 54.359 C 108.787 54.334 108.761 54.319 108.732 54.319 C 107.598 54.13 106.152 55.84 106.254 55.738 C 106.185 55.774 106.26 55.917 106.332 55.879 Z" style="fill-rule: evenodd; fill: rgb(0, 110, 255);" transform="matrix(1, 0, 0, 1, 0, 3.552713678800501e-15)"/>
  <path class="a" d="M 105.651 65.576 C 105.804 65.483 106.051 65.207 106.016 65.128 C 105.958 65.007 105.582 65.142 105.416 65.275 C 105.242 65.398 105.138 65.596 105.136 65.809 C 105.154 65.882 105.587 65.615 105.651 65.576 Z" style="fill-rule: evenodd; fill: rgb(0, 110, 255);" transform="matrix(1, 0, 0, 1, 0, 3.552713678800501e-15)"/>
  <path class="a" d="M 107.237 64.664 C 107.091 65.032 107.102 65.244 107.175 65.227 C 107.58 65.088 107.74 64.6 107.495 64.248 C 107.442 64.251 107.277 64.564 107.237 64.664 Z" style="fill-rule: evenodd; fill: rgb(0, 110, 255);" transform="matrix(1, 0, 0, 1, 0, 3.552713678800501e-15)"/>
  <path class="a" d="M 108.279 64.638 C 108.379 64.921 108.721 64.884 108.757 64.784 C 108.769 64.748 108.604 64.541 108.584 64.505 C 108.578 64.494 108.509 64.234 108.434 64.231 C 108.321 64.226 108.213 64.455 108.279 64.638 Z" style="fill-rule: evenodd; fill: rgb(0, 110, 255);" transform="matrix(1, 0, 0, 1, 0, 3.552713678800501e-15)"/>
  <path class="a" d="M 155.471 78.518 C 156.001 79.136 185.939 87.455 209.082 88.588 L 209.282 88.409 C 209.629 81.092 211.61 41.04 213.019 33.759 C 213.019 33.593 212.994 33.597 212.879 33.539 C 201.041 32.076 179.102 31.654 157.969 33.639 C 157.503 34.106 153.948 59.687 155.471 78.518 Z M 212.638 33.879 C 200.479 32.4 179.068 31.939 158.029 33.799 C 157.889 34.618 156.41 44.169 155.711 56.058 C 155.221 63.491 155.241 70.948 155.771 78.378 C 170.377 82.76 192.684 87.409 208.902 88.209 C 209.242 80.782 211.217 41.271 212.638 33.879 Z" style="fill-rule: evenodd; fill: rgb(0, 110, 255);" transform="matrix(1, 0, 0, 1, 0, 3.552713678800501e-15)"/>
  <path class="a" d="M 173.732 40.081 C 173.526 40.792 173.502 41.518 173.952 41.556 C 180.577 41.784 185.572 41.891 192.095 41.891 C 192.975 41.891 204.17 41.843 204.304 41.506 C 204.513 40.89 204.477 40.218 204.204 39.628 C 204.183 39.591 204.146 39.566 204.104 39.561 C 204.104 39.561 200.527 39.494 194.993 39.511 C 189.825 39.511 173.884 39.954 173.732 40.081 Z M 204.044 39.796 C 203.928 39.796 184.228 39.74 173.792 40.148 C 173.715 40.432 173.682 40.726 173.692 41.02 C 173.712 41.238 173.752 41.439 173.952 41.439 C 177.685 41.539 200.405 41.866 204.084 41.339 C 204.216 40.831 204.203 40.297 204.046 39.796 L 204.044 39.796 Z" style="fill-rule: evenodd; fill: rgb(0, 110, 255);" transform="matrix(1, 0, 0, 1, 0, 3.552713678800501e-15)"/>
  <path class="a" d="M 176.704 45.523 C 176.543 46.142 176.432 46.953 176.88 47.002 C 182.675 47.362 187.053 47.569 192.788 47.702 C 198.958 47.825 202.906 47.731 203.434 47.642 C 203.487 47.627 203.523 47.594 203.523 47.56 C 203.706 46.95 203.691 46.298 203.478 45.698 C 203.464 45.655 203.423 45.627 203.378 45.629 C 197.718 45.498 193.164 45.105 176.704 45.523 Z M 203.304 45.823 C 199.758 45.623 186.126 45.365 176.794 45.571 C 176.739 45.892 176.539 46.871 176.887 46.881 C 180.287 47.059 199.928 47.858 203.303 47.398 C 203.428 46.882 203.427 46.343 203.3 45.827 L 203.304 45.823 Z" style="fill-rule: evenodd; fill: rgb(0, 110, 255);" transform="matrix(1, 0, 0, 1, 0, 3.552713678800501e-15)"/>
  <path class="a" d="M 176.56 50.421 C 176.399 51.042 176.288 51.851 176.737 51.901 C 182.555 52.261 186.91 52.467 192.644 52.601 C 198.814 52.725 202.762 52.63 203.291 52.541 C 203.343 52.526 203.379 52.493 203.38 52.46 C 203.563 51.85 203.547 51.198 203.335 50.598 C 203.321 50.555 203.28 50.526 203.235 50.528 C 196.507 50.348 192.217 50.024 176.56 50.421 Z M 203.16 50.741 C 199.614 50.541 185.983 50.284 176.65 50.49 C 176.595 50.81 176.396 51.79 176.743 51.8 C 180.143 51.978 199.784 52.776 203.159 52.317 C 203.286 51.799 203.285 51.258 203.156 50.741 L 203.16 50.741 Z" style="fill-rule: evenodd; fill: rgb(0, 110, 255);" transform="matrix(1, 0, 0, 1, 0, 3.552713678800501e-15)"/>
  <path class="a" d="M 176.416 55.336 C 176.255 55.955 176.144 56.766 176.593 56.816 C 182.398 57.176 186.777 57.383 192.5 57.516 C 198.67 57.64 202.618 57.545 203.147 57.456 C 203.2 57.441 203.235 57.408 203.236 57.375 C 203.419 56.765 203.403 56.113 203.191 55.513 C 203.177 55.47 203.136 55.441 203.091 55.443 C 197.418 55.311 192.877 54.918 176.416 55.336 Z M 202.995 55.656 C 199.448 55.456 185.817 55.199 176.485 55.405 C 176.43 55.724 176.23 56.705 176.578 56.715 C 179.978 56.892 199.618 57.691 202.994 57.232 C 203.06 56.975 203.09 56.711 203.082 56.446 C 203.125 56.18 203.095 55.906 202.995 55.656 Z" style="fill-rule: evenodd; fill: rgb(0, 110, 255);" transform="matrix(1, 0, 0, 1, 0, 3.552713678800501e-15)"/>
  <path class="a" d="M 176.272 60.251 C 176.111 60.872 176.001 61.682 176.449 61.731 C 182.222 62.089 186.623 62.298 192.357 62.431 C 198.526 62.555 202.474 62.46 203.003 62.372 C 203.056 62.356 203.091 62.323 203.092 62.29 C 203.274 61.68 203.259 61.028 203.047 60.428 C 203.033 60.385 202.992 60.356 202.947 60.358 C 197.275 60.226 192.732 59.833 176.272 60.251 Z M 202.851 60.551 C 199.326 60.351 185.729 60.094 176.341 60.3 C 176.286 60.62 176.087 61.6 176.434 61.61 C 179.841 61.788 199.482 62.586 202.85 62.127 C 202.917 61.87 202.946 61.606 202.938 61.341 C 202.98 61.076 202.95 60.804 202.851 60.554 L 202.851 60.551 Z" style="fill-rule: evenodd; fill: rgb(0, 110, 255);" transform="matrix(1, 0, 0, 1, 0, 3.552713678800501e-15)"/>
  <path class="a" d="M 161.132 63.752 C 161.001 64.246 160.844 65.161 161.292 65.214 C 175.265 67.031 202.906 67.554 202.916 67.151 C 203.098 66.541 203.082 65.889 202.87 65.289 C 202.832 65.18 161.206 63.555 161.132 63.752 Z M 161.219 63.821 C 161.138 64.07 160.968 65.105 161.33 65.115 C 174.789 66.774 200.443 67.208 202.743 67.03 C 202.875 66.517 202.863 65.977 202.708 65.47 C 201.932 65.435 165.758 63.891 161.218 63.821 L 161.219 63.821 Z" style="fill-rule: evenodd; fill: rgb(0, 110, 255);" transform="matrix(1, 0, 0, 1, 0, 3.552713678800501e-15)"/>
  <path class="a" d="M 161.332 67.622 C 161.26 68.107 161.217 69.102 161.665 69.155 C 175.253 70.943 202.636 71.986 202.647 71.53 C 202.83 70.92 202.814 70.268 202.602 69.668 C 202.584 69.628 202.546 69.602 202.502 69.598 C 199.928 69.54 176.637 67.75 161.389 67.573 L 161.332 67.622 Z M 161.432 67.675 C 161.378 68.019 161.344 68.967 161.681 69.055 C 175.22 70.744 200.481 71.555 202.436 71.408 C 202.567 70.895 202.555 70.355 202.401 69.848 C 201.653 69.797 165.959 67.764 161.437 67.675 L 161.432 67.675 Z" style="fill-rule: evenodd; fill: rgb(0, 110, 255);" transform="matrix(1, 0, 0, 1, 0, 3.552713678800501e-15)"/>
  <path class="a" d="M 161.155 70.804 C 161.064 71.284 160.981 72.278 161.426 72.349 C 175.367 74.755 202.252 76.796 202.281 76.363 C 202.488 75.761 202.498 75.109 202.31 74.501 C 202.293 74.459 202.255 74.431 202.21 74.427 C 198.351 74.178 177.145 71.582 161.21 70.757 L 161.155 70.804 Z M 161.239 70.86 C 161.172 71.201 161.099 72.147 161.433 72.249 C 174.914 74.482 200.113 76.305 202.06 76.232 C 202.213 75.724 202.223 75.185 202.088 74.672 C 192.558 73.646 170.792 71.389 161.239 70.864 L 161.239 70.86 Z" style="fill-rule: evenodd; fill: rgb(0, 110, 255);" transform="matrix(1, 0, 0, 1, 0, 3.552713678800501e-15)"/>
  <path class="a" d="M 161.287 75.171 C 161.187 75.651 161.073 76.641 161.517 76.723 C 175.385 79.511 202.204 82.29 202.245 81.858 C 202.468 81.262 202.496 80.61 202.325 79.997 C 202.309 79.954 202.27 79.925 202.225 79.921 C 198.719 79.601 177.125 76.378 161.342 75.121 L 161.287 75.171 Z M 161.387 75.231 C 161.311 75.571 161.211 76.514 161.542 76.625 C 174.933 79.225 200.084 81.742 202.042 81.725 C 202.208 81.222 202.233 80.683 202.113 80.167 C 201.369 80.064 165.894 75.622 161.388 75.231 L 161.387 75.231 Z" style="fill-rule: evenodd; fill: rgb(0, 110, 255);" transform="matrix(1, 0, 0, 1, 0, 3.552713678800501e-15)"/>
  <path class="a" d="M 168.519 120 C 211.419 100.91 209.525 101.686 215.835 99.339 C 215.935 99.339 217.035 98.472 204.246 103.715 C 192.087 108.756 168.401 119.785 168.479 119.94 C 168.459 120 168.499 120.02 168.519 120 Z" style="fill-rule: evenodd; fill: rgb(0, 110, 255);" transform="matrix(1, 0, 0, 1, 0, 3.552713678800501e-15)"/>
  <path class="a" d="M 222.065 44.784 C 222.872 38.284 223.102 38.295 222.98 38.225 C 222.953 38.232 222.925 38.239 222.916 38.257 C 221.657 44.672 220.816 54.357 220.344 60.024 C 220.217 61.61 218.433 92.898 218.581 92.907 C 218.932 92.6 219.737 65.109 222.065 44.784 Z" style="fill-rule: evenodd; fill: rgb(0, 110, 255);" transform="matrix(1, 0, 0, 1, 0, 3.552713678800501e-15)"/>
  <path class="a" d="M 168.232 118.306 C 211.132 99.216 209.238 99.993 215.548 97.645 C 215.648 97.645 216.758 96.773 203.959 102.021 C 193.511 106.352 167.392 118.306 168.232 118.306 Z" style="fill-rule: evenodd; fill: rgb(0, 110, 255);" transform="matrix(1, 0, 0, 1, 0, 3.552713678800501e-15)"/>
  <path class="a" d="M 219.652 42.222 C 220.429 35.649 220.759 35.15 220.631 35.076 C 220.604 35.083 220.576 35.09 220.566 35.107 C 217.383 51.868 215.655 96.651 215.766 94.474 C 215.975 95.286 217.496 60.98 219.652 42.222 Z" style="fill-rule: evenodd; fill: rgb(0, 110, 255);" transform="matrix(1, 0, 0, 1, 0, 3.552713678800501e-15)"/>
  <path class="a" d="M 132.132 98.557 C 131.183 99.138 149.832 104.726 150.765 104.586 C 153.466 103.836 156.111 102.895 158.679 101.77 C 158.971 101.606 159.31 101.414 159.153 101.196 C 158.475 100.222 141.553 96.077 140.412 95.803 C 139.018 95.803 131.922 98.642 132.132 98.557 Z M 140.376 96.007 C 139.497 95.907 133.086 98.314 132.254 98.628 C 133.878 99.822 150.176 104.458 150.701 104.328 C 151.701 104.105 158.183 101.987 158.887 101.318 C 158.177 100.472 142.183 96.535 140.38 96.007 L 140.376 96.007 Z" style="fill-rule: evenodd; fill: rgb(0, 110, 255);" transform="matrix(1, 0, 0, 1, 0, 3.552713678800501e-15)"/>
  <path class="a" d="M 126.897 89.747 C 126.853 89.747 126.843 89.813 126.877 89.847 C 130.177 92.404 176.497 103.468 178.69 103.155 C 180.924 102.755 200.631 97.679 201.908 96.082 C 201.988 95.982 201.988 95.862 201.868 95.722 C 199.737 93.594 152.768 84.17 149.876 83.593 C 146.082 83.593 126.303 89.934 126.897 89.747 Z M 129.775 88.988 C 128.336 89.428 127.337 89.727 127.017 89.827 C 130.643 92.275 176.652 103.248 178.65 102.915 C 179.289 102.796 180.967 102.396 183.15 101.836 C 182.446 101.676 130.014 89.048 129.775 88.988 Z M 133.632 87.829 C 132.273 88.229 131.032 88.608 129.975 88.929 C 130.655 89.089 182.867 101.677 183.346 101.797 C 184.546 101.478 185.904 101.138 187.303 100.738 C 182.304 99.554 133.732 87.829 133.632 87.829 Z M 138.148 86.51 C 136.669 86.93 135.191 87.37 133.832 87.769 C 134.432 87.909 186.943 100.537 187.542 100.677 C 188.942 100.298 190.4 99.877 191.818 99.477 C 191.118 99.319 138.307 86.55 138.147 86.51 L 138.148 86.51 Z M 142.264 85.371 C 141.005 85.711 139.686 86.071 138.364 86.45 C 139.043 86.61 191.535 99.279 192.034 99.399 C 193.053 99.099 195.691 98.299 196.011 98.199 C 195.274 98.04 142.403 85.411 142.263 85.371 L 142.264 85.371 Z M 145.664 84.512 C 144.847 84.712 143.388 85.08 142.507 85.331 C 143.207 85.491 195.698 98.02 196.257 98.16 C 197.357 97.8 198.375 97.46 199.215 97.16 C 198.511 97.001 146.08 84.612 145.66 84.512 L 145.664 84.512 Z M 199.375 97.081 C 200.201 96.815 200.987 96.439 201.712 95.962 C 200.693 94.932 188.074 92.043 186.526 91.686 C 180.792 90.347 150.1 83.873 149.88 83.833 C 148.541 83.905 147.214 84.126 145.924 84.492 C 146.699 84.672 198.811 96.941 199.371 97.081 L 199.375 97.081 Z" style="fill-rule: evenodd; fill: rgb(0, 110, 255);" transform="matrix(1, 0, 0, 1, 0, 3.552713678800501e-15)"/>
  <path d="M 216.994 101.057 C 217.034 101.057 217.034 101.017 217.034 100.997 C 217.034 100.957 216.994 100.957 216.974 100.957 C 214.523 101.802 210.267 103.447 209.721 103.675 C 209.341 103.255 209.102 103.055 209.062 103.115 C 206.862 103.695 201.788 106.572 201.788 106.572 C 201.888 106.672 202.008 106.752 202.128 106.852 C 201.762 107.002 169.466 121.606 169.578 121.718 C 169.69 121.83 198.192 108.826 202.388 107.011 C 205.834 109.977 208.949 113.307 211.679 116.942 C 212.579 114.105 210.879 110.388 210.879 110.388 C 212.664 111.545 214.319 112.892 215.814 114.405 C 214.694 110.466 212.653 106.849 209.86 103.854 C 210.497 103.578 214.225 102.055 216.994 101.057 Z" style="fill: rgb(0, 110, 255);" transform="matrix(1, 0, 0, 1, 0, 3.552713678800501e-15)"/>
  <path d="M 228.544 95.622 C 232.309 88.665 234.344 78.303 226.965 75.241 C 228.177 56.241 229.133 33.841 229.143 33.741 C 229.143 33.741 228.183 33.305 227.764 34.96 C 226.645 34.769 225.564 34.397 224.564 33.86 C 222.425 32.687 220.543 31.097 219.029 29.184 C 219.171 28.617 215.653 28.24 215.129 28.184 C 200.18 26.672 155.813 29.284 154.845 29.284 C 154.782 29.285 154.726 29.324 154.705 29.384 C 150.151 40.863 149.73 68.89 149.939 81.241 C 143.823 82.075 137.773 83.335 131.832 85.012 C 125.822 86.636 119.913 88.617 114.139 90.945 C 108.749 85.733 108.466 85.325 106.315 83.613 C 107.011 81.366 107.44 79.046 107.594 76.699 C 107.694 76.679 108.034 76.499 108.333 75.66 C 108.594 74.87 108.755 74.051 108.813 73.222 C 110.071 72.436 111.62 71.115 111.33 69.666 C 111.223 69.126 110.659 69.044 110.172 69.206 C 110.172 69.106 110.486 68.534 110.272 68.147 C 110.2 68.018 110.09 67.907 109.712 67.907 C 110.499 67.244 111.07 66.36 111.351 65.37 C 111.451 64.306 110.838 64.009 109.812 64.351 L 109.992 63.831 C 111.27 63.238 111.708 62.544 111.592 62.153 C 111.592 62.133 111.572 62.133 111.572 62.113 C 110.92 60.802 110.572 59.361 110.553 57.897 C 110.411 53.497 112.477 52.913 111.553 45.888 C 111.415 44.5 111.28 45.002 111.613 44.569 C 112.245 43.939 112.262 42.921 111.653 42.269 C 112.492 42.948 114.253 44.187 114.331 42.669 C 114.431 40.669 110.614 34.736 96.867 35.155 C 83.12 35.574 77.023 45.364 78.542 47.286 C 80.061 49.208 80.78 44.709 81.059 44.569 C 81.059 44.569 79.459 50.583 81.259 49.984 C 81.632 49.844 81.957 49.601 82.198 49.284 C 81.734 52.624 82.716 56.004 84.898 58.575 C 84.538 58.995 75.427 69.785 75.167 70.104 C 63.196 69.264 56.222 73.083 52.186 78.378 C 46.851 85.391 46.711 95.022 47.051 99.798 C 47.031 99.778 46.991 99.798 46.971 99.818 C 46.916 99.873 47.006 99.935 47.071 99.978 C 47.211 101.697 47.39 102.735 47.39 102.735 C 47.39 102.775 47.43 102.796 47.47 102.796 C 47.629 102.796 47.412 102.573 47.231 100.118 C 49.671 101.842 52.213 103.417 54.843 104.834 C 49.289 102.716 45.712 102.516 44.553 104.014 C 42.095 107.151 36.261 131.189 57.601 167.156 C 57.601 167.156 88.912 169.035 114.309 167.156 C 110.657 158.791 106.34 150.732 101.401 143.056 C 102.648 142.982 103.885 142.802 105.101 142.516 C 106.63 142.184 108.084 141.574 109.392 140.716 C 109.998 141.041 116.381 150.358 133.615 156.207 C 137.787 157.577 142.177 158.167 146.563 157.946 C 149.845 166.723 149.805 167.237 149.963 167.237 C 150.003 167.217 150.118 167.149 150.098 167.11 C 149.509 163.928 148.54 160.827 147.212 157.876 C 150.708 157.66 154.16 156.978 157.476 155.848 C 165.152 153.271 172.223 149.158 178.257 143.759 C 178.296 143.731 178.318 143.686 178.317 143.639 C 178.429 141.922 178.409 140.198 178.257 138.484 C 178.801 138.292 179.335 138.071 179.857 137.824 C 179.968 137.862 223.557 152.258 223.636 151.931 C 223.715 151.604 180.945 137.831 180.266 137.608 C 181.954 136.795 183.507 135.729 184.872 134.447 C 184.912 134.403 184.934 134.346 184.932 134.287 C 184.857 133.707 184.744 133.133 184.592 132.569 C 185.538 132.298 186.431 131.865 187.23 131.29 C 192.03 134.221 204.467 128.847 202.476 121.819 C 202.395 121.549 202.251 121.302 202.056 121.099 C 203.51 120.011 205.328 119.524 207.131 119.741 C 210.331 120.104 219.64 125.063 228.492 118.822 C 237.332 112.548 224.79 102.514 228.544 95.622 Z M 221.75 32.322 C 223.442 33.809 225.52 34.785 227.744 35.139 C 227.603 35.846 227.786 32.847 225.193 74.632 C 224.116 74.4 223.018 74.28 221.916 74.273 C 223.731 45.679 226.162 40.555 225.806 40.555 C 225.786 40.555 225.746 40.575 225.746 40.595 C 222.146 55.132 220.953 81.676 220.731 95.824 C 220.733 95.856 220.759 95.882 220.791 95.884 C 220.891 95.884 220.791 97.228 221.891 74.484 C 222.995 74.493 224.094 74.627 225.168 74.884 C 224.368 87.532 223.686 98.598 223.606 99.717 C 221.677 97.017 217.824 95.627 214.515 95.461 C 214.515 95.561 213.033 85.739 213.975 68.786 C 214.805 55.552 216.475 42.384 218.975 29.362 C 219.775 30.458 220.707 31.451 221.75 32.32 L 221.75 32.322 Z M 154.971 29.605 C 160.351 29.261 213.283 26.677 218.633 29.265 C 214.873 47.649 211.778 76.265 214.177 95.224 C 213.466 95.082 161.822 84.509 150.177 81.244 C 149.942 69.04 150.499 40.948 154.971 29.603 L 154.971 29.605 Z M 150.041 81.443 C 161.504 84.743 202.462 93.172 214.077 95.584 C 205.635 97.748 197.366 100.54 189.34 103.937 C 181.247 107.259 173.346 111.032 165.675 115.237 C 161.331 113.448 129.58 100.537 121.522 98.162 C 119.158 95.798 116.833 93.549 114.351 91.15 C 125.899 86.747 137.854 83.495 150.041 81.441 L 150.041 81.443 Z M 134.49 112.546 C 133.29 111.028 132.234 109.757 131.036 108.358 C 145.053 114.689 154.383 118.576 159.148 120.999 C 163.126 122.961 162.934 123.086 163.048 122.977 C 163.131 122.81 157.641 119.892 150.2 116.463 C 147.842 115.363 131.237 108.13 130.718 107.911 C 130.058 107.131 129.571 106.56 128.891 105.801 C 134.844 108.033 153.201 115.253 162.948 120.359 C 163.007 120.389 163.073 120.325 163.008 120.259 C 154.33 115.359 138.18 108.859 128.54 105.393 C 127.481 104.214 126.509 103.186 125.43 102.047 C 157.83 114.589 159.597 115.024 164.107 117.242 C 164.166 117.272 164.232 117.207 164.167 117.142 C 155.108 112.542 136.083 105.842 125.167 101.816 C 124.028 100.637 123.162 99.75 122.003 98.592 C 128.703 100.686 165.378 115.458 165.48 115.504 C 165.872 116.241 166.164 117.028 166.349 117.842 C 166.824 119.947 167.059 122.098 167.049 124.256 C 165.231 124.036 162.849 123.916 160.276 123.856 L 134.49 112.546 Z M 155.49 123.836 C 149.396 123.876 143.561 124.176 142.702 124.216 C 140.524 120.759 138.346 117.642 136.168 114.744 C 138.087 115.664 152.554 122.557 155.491 123.836 L 155.49 123.836 Z M 106.156 83.513 C 105.936 83.333 105.697 83.154 105.456 82.974 C 106.301 81.067 106.791 79.021 106.901 76.938 C 107.068 76.9 107.232 76.854 107.394 76.799 C 107.001 78.377 106.441 82.089 106.156 83.513 Z M 101.521 72.983 C 101.621 73.506 101.782 74.015 102 74.501 C 100.976 75.924 100.104 77.451 99.4 79.057 C 99.02 78.837 98.62 78.618 98.241 78.418 C 98.888 77.516 101.032 73.964 101.521 72.983 Z M 98.084 78.318 C 97.724 78.138 97.364 77.938 97.005 77.758 C 97.045 77.499 97.564 72.703 97.605 72.323 C 98.833 72.618 100.083 72.812 101.342 72.903 C 100.104 74.612 99.014 76.423 98.084 78.318 Z M 102.12 74.701 C 102.171 74.838 102.253 74.961 102.36 75.061 C 102.861 75.919 103.656 76.565 104.598 76.879 C 103.881 78.232 103.279 79.642 102.798 81.095 C 101.738 80.396 100.659 79.737 99.56 79.117 C 99.839 78.564 101.432 76.245 102.12 74.701 Z M 104.758 76.979 C 105.408 77.129 106.083 77.136 106.736 76.999 C 106.207 79.64 105.498 82.251 105.336 82.894 C 104.557 82.314 103.757 81.755 102.958 81.215 C 103.695 79.865 104.297 78.446 104.758 76.979 Z M 107.458 76.379 C 105.712 77.164 103.655 76.552 102.623 74.94 C 102.203 74.323 101.885 73.641 101.683 72.922 C 103.072 73.037 104.467 72.775 105.72 72.163 C 105.74 72.222 105.76 72.282 105.78 72.343 C 105.938 72.553 106.199 72.66 106.459 72.622 C 106.313 72.81 106.21 73.028 106.159 73.261 C 106.071 73.748 106.559 73.961 107.059 73.961 C 107.62 73.918 108.156 73.709 108.598 73.361 C 108.487 73.991 108.032 76.092 107.455 76.38 L 107.458 76.379 Z M 110.232 71.604 C 109.463 72.369 108.58 73.01 107.614 73.504 C 107.262 73.668 106.858 73.682 106.495 73.544 C 106.26 73.362 106.514 72.878 106.675 72.625 C 108.068 72.464 109.509 70.69 110.032 69.448 C 111.446 69.042 111.232 70.492 110.232 71.604 Z M 109.732 68.127 C 109.852 68.147 109.972 68.167 110.032 68.287 C 110.385 68.906 107.902 72.601 106.232 72.243 C 105.427 72.243 107.97 69.467 108.61 68.827 C 109.58 68.054 109.351 68.127 109.732 68.127 Z M 111.011 65.35 C 110.863 66.364 108.811 68.566 107.311 69.066 C 106.511 69.333 106.273 68.99 106.472 68.487 C 107.011 67.56 107.731 66.751 108.59 66.109 C 109.81 65.154 109.749 65.588 109.749 65.37 C 109.749 65.249 109.543 65.352 109.369 65.41 L 109.689 64.471 C 109.709 64.49 109.749 64.511 109.769 64.49 C 109.873 64.455 111.21 63.992 111.012 65.35 L 111.011 65.35 Z M 83.078 54.82 C 82.439 52.897 82.228 50.858 82.458 48.845 C 82.962 47.878 83.287 46.828 83.417 45.745 C 83.417 45.745 83.017 51.34 85.117 50.161 C 86.221 49.497 86.776 48.201 86.495 46.944 C 86.304 46.082 86.37 46.152 86.495 46.944 C 87.531 51.175 90.672 48.192 90.995 44.586 C 90.995 44.586 91.175 48.842 92.474 48.286 C 93.773 47.73 95.052 43.411 95.052 43.411 C 95.052 43.411 95.111 48.111 96.81 47.228 C 98.577 46.312 98.903 43.019 98.841 43.457 C 98.776 43.91 98.464 47.469 99.967 46.668 C 101.526 45.849 101.567 43.551 101.567 43.411 C 101.588 44.447 101.819 45.467 102.247 46.411 C 101.991 46.984 101.855 47.603 101.847 48.23 C 101.774 52.583 102.171 53.895 100.169 55.983 C 98.108 58.158 99.669 61.897 99.569 62.716 C 98.909 63.377 97.897 64.072 97.212 63.436 C 97.442 59.047 96.522 54.717 92.536 56.522 C 91.058 57.222 89.756 61.149 92.316 62.956 C 89.395 62.69 86.783 61.029 85.303 58.497 C 84.29 57.458 83.529 56.2 83.078 54.82 Z M 85.078 58.901 C 86.556 61.593 89.424 63.222 92.493 63.112 C 92.515 63.114 92.537 63.107 92.553 63.092 C 93.151 63.429 93.809 63.646 94.49 63.734 C 94.336 65.582 96.497 65.841 96.79 64.311 C 96.941 63.755 96.635 63.178 96.09 62.992 C 95.953 62.941 95.37 62.792 95.37 62.972 C 95.373 63.015 95.407 63.049 95.45 63.052 C 95.752 63.083 96.035 63.217 96.25 63.432 C 96.416 63.663 96.468 63.958 96.39 64.232 C 96.19 65.327 94.59 65.108 94.59 63.732 C 94.749 63.718 94.909 63.718 95.068 63.732 C 95.137 63.74 95.188 63.67 95.161 63.606 C 95.148 63.577 95.12 63.557 95.088 63.553 C 92.75 63.313 91.671 62.274 91.331 61.035 C 90.849 59.235 91.875 57.193 92.731 56.819 C 94.108 56.232 95.3 56.31 96.031 57.598 C 96.892 59.058 96.987 61.816 96.831 63.433 C 96.827 63.498 96.848 63.563 96.891 63.612 C 98.156 64.932 100.091 62.953 100.091 62.812 C 100.237 62.154 99.539 60.323 99.651 58.612 C 99.851 55.756 101.736 56.086 102.209 53.197 C 102.358 51.523 102.392 49.841 102.309 48.162 C 102.305 47.6 102.414 47.042 102.629 46.523 C 102.845 46.598 103.085 46.544 103.248 46.383 C 103.989 45.76 104.554 44.954 104.887 44.045 C 104.973 43.834 105.045 43.617 105.102 43.397 C 105.121 43.574 105.149 43.75 105.186 43.925 C 106.11 48.291 108.909 46.061 108.743 42.267 C 108.743 42.267 110.022 45.404 111.181 44.885 C 111.643 47.718 111.513 50.616 110.801 53.397 C 109.652 57.065 110.183 60.359 111.281 62.189 C 111.301 62.249 111.273 62.501 110.941 62.848 C 110.611 63.159 110.233 63.415 109.822 63.607 C 109.79 63.609 109.764 63.635 109.762 63.667 L 109.32 65.117 C 109.17 65.047 109.008 65.009 108.843 65.006 C 107.931 65.135 107.105 65.616 106.543 66.346 C 106.461 66.465 106.572 66.516 106.725 66.423 C 107.313 66.063 108.533 65.181 109.274 65.267 L 109.263 65.306 C 109.263 65.346 109.263 65.386 109.302 65.406 C 107.994 66.06 105.202 68.465 106.345 69.362 C 106.826 69.604 107.4 69.566 107.845 69.262 C 107.299 69.762 105.892 71.185 105.787 71.92 C 103.898 73.053 99.711 72.385 97.534 71.86 C 97.477 71.851 97.42 71.866 97.374 71.9 C 97.329 71.933 97.3 71.984 97.294 72.04 C 97.294 72.04 96.894 77.335 96.875 77.634 C 90.129 74.264 82.989 71.752 75.62 70.154 C 75.95 69.779 84.774 59.24 85.074 58.901 L 85.078 58.901 Z M 52.626 103.295 C 49.648 101.595 47.726 100.295 47.211 99.918 C 46.871 95.202 46.971 85.551 52.346 78.518 C 56.346 73.282 63.256 69.546 75.105 70.385 C 81.333 71.735 87.407 73.717 93.232 76.3 C 99.105 78.785 104.501 82.274 109.178 86.61 C 116.051 93.384 122.385 99.199 128.5 106.032 C 124.589 112.413 117.205 114.62 109.757 114.984 C 105.302 115.183 100.84 114.818 96.477 113.897 C 95.818 110.769 95.368 107.601 95.13 104.414 C 95.13 104.352 95.063 104.314 95.01 104.345 C 94.985 104.359 94.97 104.385 94.97 104.414 C 95.209 107.605 95.622 110.78 96.21 113.925 C 81.057 115.588 65.87 110.723 52.626 103.295 Z M 107.195 141.52 C 105.246 142.211 103.207 142.616 101.141 142.72 C 95.506 134.048 88.313 125.02 80.141 119.282 C 75.067 115.649 69.783 112.319 64.316 109.31 C 74.416 113.329 85.404 115.524 96.266 114.086 C 98.152 123.893 102.622 133.02 109.215 140.522 C 108.589 140.943 107.91 141.279 107.195 141.52 Z M 109.653 140.561 C 102.943 133.082 98.385 123.924 96.465 114.061 C 100.831 115.08 105.313 115.51 109.793 115.34 C 117.433 114.973 124.693 112.718 128.616 106.148 C 129.216 106.848 129.85 107.533 130.474 108.226 C 134.941 113.198 138.917 118.589 142.347 124.326 C 139.575 132.856 133.325 137.912 124.719 139.873 C 119.771 140.944 114.678 141.177 109.653 140.564 L 109.653 140.561 Z M 178.01 143.538 C 172.029 148.877 165.029 152.948 157.432 155.507 C 149.802 158.135 141.53 158.246 133.832 155.826 C 124.658 152.966 116.383 147.776 109.813 140.764 C 124.136 142.648 138.561 138.509 142.683 124.598 C 146.774 124.463 161.948 123.715 168.039 124.798 C 171.104 125.454 173.751 127.368 175.333 130.074 C 177.091 132.864 178.37 137.104 178.01 143.538 Z M 179.629 128.931 C 178.309 129.191 177.017 129.579 175.772 130.09 C 175.627 129.945 175.889 130.154 174.993 128.931 C 176.43 128.393 179.611 127.418 181.087 127.852 C 181.435 128.067 181.752 128.329 182.027 128.632 C 181.22 128.646 180.417 128.746 179.632 128.931 L 179.629 128.931 Z M 182.206 128.792 C 182.731 129.364 183.169 130.01 183.506 130.71 C 182.615 131.259 180.506 132.11 177.312 133.527 C 176.948 132.38 176.466 131.274 175.873 130.227 C 176.166 130.132 180.903 128.922 182.206 128.792 Z M 177.371 133.707 C 179.151 133.116 182.146 132.123 183.585 130.889 C 183.916 131.593 184.171 132.331 184.344 133.089 C 183.364 134.159 180.365 135.889 178.17 137.289 C 178.001 136.075 177.733 134.877 177.371 133.707 Z M 178.29 138.323 C 178.25 138.023 178.23 137.743 178.19 137.483 C 179.861 136.648 183.209 134.904 184.404 133.307 C 184.464 133.627 184.524 133.947 184.564 134.286 C 182.718 135.979 180.596 137.345 178.29 138.323 Z M 184.524 132.468 C 184.058 130.599 182.991 128.935 181.487 127.732 C 182.987 125.739 185.662 122.816 188.041 122.098 C 189.487 121.628 190.996 121.378 192.517 121.358 C 192.973 121.374 193.847 121.476 194.017 121.898 C 192.11 121.873 190.211 122.17 188.403 122.777 C 188.363 122.797 188.323 122.837 188.343 122.877 C 188.402 122.995 188.343 122.929 189.622 122.717 C 191.313 122.417 195.834 121.652 196.375 123.277 C 196.357 123.465 196.288 123.644 196.175 123.796 C 195.642 123.599 195.074 123.517 194.507 123.557 C 192.797 123.651 191.1 123.912 189.441 124.335 C 189.353 124.379 189.366 124.495 189.48 124.495 C 191.156 124.128 192.864 123.928 194.58 123.895 C 195.087 123.903 196.295 123.947 196.358 124.454 C 196.487 125.739 192.212 125.281 190.164 126.532 C 190.131 126.567 190.104 126.608 190.084 126.652 C 189.665 128 188.948 129.237 187.984 130.269 C 187.037 131.284 185.846 132.04 184.524 132.464 L 184.524 132.468 Z M 202.148 121.938 C 204.082 128.31 192.207 133.863 187.382 131.209 C 188.822 130.061 189.886 128.509 190.439 126.753 C 192.525 125.526 196.913 126.153 196.713 124.353 C 196.692 124.134 196.565 123.94 196.373 123.834 C 196.528 123.661 196.626 123.445 196.653 123.215 C 196.453 122.238 195.125 121.876 194.195 121.876 C 193.979 121.082 192.434 120.988 191.618 121.037 C 195.781 118.674 201.566 119.998 202.148 121.938 Z M 228.248 118.561 C 222.924 122.347 217.316 122.199 211.004 120.519 C 208.338 119.78 206.704 119.074 204.29 119.8 C 203.438 120.055 202.64 120.462 201.932 121 C 200.262 119.329 194.932 118.666 191.242 121.08 C 190.887 121.1 190.534 121.14 190.183 121.199 C 188.173 121.416 186.284 122.263 184.783 123.617 C 183.466 124.8 182.311 126.15 181.346 127.634 C 181.29 127.588 181.23 127.548 181.166 127.514 C 179.44 127.059 176.502 128.114 174.852 128.793 C 173.926 127.665 172.849 126.67 171.652 125.835 C 171.652 125.835 189.722 117.864 204.808 110.81 C 204.328 110.251 203.829 109.671 203.289 109.132 C 188.643 115.806 170.953 123.817 169.214 124.716 C 168.643 124.52 168.052 124.389 167.451 124.326 C 167.62 121.631 167.29 117.784 165.73 115.444 C 194.261 100.499 213.995 95.93 214.53 95.665 C 216.198 95.842 217.83 96.265 219.373 96.922 C 220.984 97.554 222.412 98.577 223.529 99.899 C 222.99 100.159 219.263 101.851 212.609 104.868 C 213.009 105.368 213.448 105.927 213.888 106.568 C 220.162 103.591 223.609 101.859 224.209 101.34 C 225.068 100.62 226.067 88.951 226.926 75.524 C 234.012 78.641 231.842 88.776 228.205 95.485 C 224.346 102.657 236.772 112.45 228.244 118.564 L 228.248 118.561 Z" style="paint-order: fill; fill: url('#gradient-1');" transform="matrix(1, 0, 0, 1, 0, 3.552713678800501e-15)"/>
  <path class="a" d="M 173.968 45.42 C 174.598 45.42 174.993 46.102 174.677 46.648 C 174.362 47.194 173.574 47.194 173.259 46.648 C 173.187 46.524 173.149 46.383 173.149 46.239 C 173.15 45.787 173.516 45.42 173.968 45.42 Z" style="fill-rule: evenodd; fill: rgb(0, 110, 255);" transform="matrix(1, 0, 0, 1, 0, 3.552713678800501e-15)"/>
  <path class="a" d="M 158.672 63.531 C 159.303 63.531 159.698 64.214 159.382 64.761 C 159.067 65.308 158.277 65.308 157.962 64.761 C 157.89 64.636 157.852 64.494 157.852 64.35 C 157.852 63.897 158.219 63.53 158.672 63.531 Z" style="fill-rule: evenodd; fill: rgb(0, 110, 255);" transform="matrix(1, 0, 0, 1, 0, 3.552713678800501e-15)"/>
  <path class="a" d="M 159.647 39.374 C 159.747 39.274 163.141 39.321 164.163 39.334 C 171.352 39.464 170.977 39.519 170.977 39.634 C 170.242 43.821 170.412 55.653 170.037 57.277 C 169.998 57.396 169.944 57.537 169.818 57.537 C 168.946 57.827 159.823 56.821 158.908 56.718 L 158.808 56.618 C 158.219 51.893 158.825 44.043 159.647 39.374 Z M 163.204 56.958 C 165.379 57.218 167.568 57.338 169.758 57.317 C 169.809 57.317 169.836 57.231 169.845 57.18 C 169.93 56.68 169.994 54.825 169.998 54.74 C 169.847 54.705 169.692 54.691 169.538 54.7 C 168.822 54.79 168.101 54.824 167.38 54.8 C 166.776 54.625 166.162 54.485 165.542 54.38 C 165.022 54.34 164.463 54.38 163.823 54.32 C 163.006 54.269 162.11 54.705 161.485 54.58 C 161.153 55.41 160.606 55.809 159.785 55.399 C 159.516 55.21 159.347 54.908 159.326 54.58 C 159.146 54.62 158.986 54.64 158.866 54.66 C 158.906 55.299 158.966 55.939 159.046 56.56 C 159.346 56.6 160.346 56.7 161.623 56.82 C 161.452 56.539 161.395 56.203 161.463 55.881 C 161.565 55.477 161.88 55.162 162.283 55.061 C 162.627 55.047 162.952 55.214 163.142 55.501 C 163.253 55.978 163.274 56.473 163.204 56.958 Z M 163.104 56.958 C 163.104 56.722 163.024 55.619 162.864 55.539 C 162.714 55.394 162.513 55.315 162.305 55.319 C 161.998 55.399 161.755 55.634 161.665 55.939 C 161.589 56.241 161.624 56.561 161.765 56.839 C 162.185 56.858 162.644 56.918 163.104 56.958 Z M 165.504 55.179 C 165.76 55.179 165.871 55.321 165.904 55.579 C 165.942 56.032 165.934 56.1 165.545 56.379 C 165.439 56.451 165.325 56.512 165.205 56.559 C 164.955 56.699 164.658 56.728 164.386 56.639 C 164.155 56.513 163.946 56.351 163.766 56.159 C 163.172 55.625 163.72 54.625 164.685 54.801 C 164.979 54.874 165.256 55.002 165.502 55.179 L 165.504 55.179 Z M 169.06 55.239 C 168.799 54.973 168.403 54.894 168.06 55.039 C 167.542 55.199 167.42 55.479 167.181 55.439 C 166.568 55.316 166.281 56.622 167.121 56.539 C 167.654 56.506 167.767 56.279 167.94 56.279 C 168.208 56.279 168.356 56.555 168.76 56.439 C 169.132 56.336 169.263 55.598 169.058 55.239 L 169.06 55.239 Z M 165.46 55.279 C 165.56 55.279 165.76 55.266 165.76 55.579 C 165.76 55.989 165.828 56.004 165.121 56.358 C 164.529 56.612 164.401 56.417 163.982 55.998 C 163.547 55.625 163.973 54.908 164.701 54.998 C 164.971 55.041 165.229 55.136 165.462 55.279 L 165.46 55.279 Z M 168.976 55.459 C 168.897 55.282 168.707 55.183 168.517 55.219 C 167.806 55.255 167.641 55.65 167.298 55.699 C 167.083 55.77 167.078 55.589 166.938 55.799 C 166.812 55.934 166.781 56.131 166.858 56.299 C 166.993 56.434 167.43 56.313 167.618 56.219 C 168.118 55.919 168.318 56.487 168.697 56.359 C 169.012 56.182 169.135 55.79 168.978 55.464 L 168.976 55.459 Z M 161.403 54.54 C 160.762 54.374 160.09 54.368 159.445 54.52 C 159.504 54.787 159.671 55.018 159.905 55.159 C 160.489 55.508 160.998 55.083 161.405 54.54 L 161.403 54.54 Z M 158.786 51.782 C 158.786 52.669 158.827 53.823 158.866 54.52 C 159.675 54.243 160.539 54.167 161.383 54.3 C 162.065 54.592 162.923 53.994 163.883 54.1 C 164.523 54.16 165.062 54.12 165.602 54.16 C 166.224 54.272 166.838 54.426 167.44 54.62 C 168.145 54.682 168.853 54.682 169.558 54.62 C 169.714 54.613 169.869 54.633 170.018 54.68 C 170.037 54.06 170.057 53.361 170.077 52.602 C 169.527 52.245 168.831 52.199 168.239 52.482 C 167.629 52.782 167.41 52.582 166.839 52.502 C 166.199 52.414 165.985 52.042 165.501 52.102 C 165.143 52.135 165.081 52.342 164.801 52.482 C 164.368 52.699 163.677 51.988 163.243 52.162 C 162.73 52.294 162.19 52.28 161.684 52.122 C 161.247 52.013 160.786 52.041 160.365 52.202 C 159.808 52.235 159.255 52.088 158.788 51.782 L 158.786 51.782 Z M 158.846 48.346 C 159.47 48.191 160.122 48.191 160.746 48.346 C 161.372 48.601 162.055 48.683 162.724 48.585 C 162.86 48.544 163.002 48.524 163.144 48.525 C 163.504 48.485 163.944 48.465 164.744 48.325 C 165.755 48.13 166.794 48.137 167.802 48.345 C 168.564 48.618 169.369 48.754 170.179 48.745 C 170.179 48.765 170.179 48.805 170.139 48.805 C 169.331 48.899 168.512 48.817 167.739 48.565 C 166.761 48.378 165.756 48.385 164.781 48.585 C 163.695 48.785 163.313 48.734 162.781 48.845 C 162.067 48.947 161.338 48.843 160.681 48.545 C 160.09 48.371 159.464 48.35 158.863 48.485 C 158.823 49.524 158.783 50.603 158.803 51.702 C 159.088 51.824 159.382 51.924 159.682 52.002 C 160.395 52.132 160.415 51.887 161.001 51.822 C 161.401 51.777 162.177 52.002 162.62 52.002 C 163.201 52.002 163.244 51.784 163.658 51.922 C 163.975 51.986 164.425 52.262 164.578 52.262 C 164.758 52.298 164.945 52.044 165.137 51.962 C 165.952 51.636 166.074 52.129 166.875 52.282 C 167.527 52.4 167.542 52.552 168.175 52.322 C 168.801 52.04 169.53 52.108 170.093 52.502 C 170.133 50.602 170.193 48.402 170.273 46.287 C 169.254 46.187 159.033 45.743 159.033 45.743 C 159.023 45.841 158.848 48.241 158.848 48.346 L 158.846 48.346 Z M 170.375 43.846 C 170.226 44.256 170.002 44.636 169.716 44.965 C 170.035 44.985 170.255 45.005 170.316 45.005 C 170.317 45.009 170.357 44.209 170.377 43.85 L 170.375 43.846 Z M 169.596 44.946 C 169.557 44.488 169.484 44.034 169.376 43.587 C 169.198 44.044 168.97 44.48 168.697 44.887 C 169.038 44.909 169.358 44.929 169.598 44.949 L 169.596 44.946 Z M 168.557 44.866 C 168.537 44.846 168.537 44.826 168.537 44.786 C 168.56 44.494 168.566 44.2 168.557 43.907 C 168.297 44.221 167.994 44.497 167.657 44.726 C 167.62 44.746 167.574 44.746 167.537 44.726 C 167.419 44.667 167.5 44.545 167.517 43.947 C 167.526 43.619 167.497 43.569 167.457 43.487 C 167.285 43.59 167.136 43.726 167.017 43.887 C 166.383 44.648 166.431 44.757 166.278 44.706 C 166.236 44.688 166.206 44.651 166.198 44.606 C 166.198 43.975 165.998 43.562 165.938 43.627 C 165.694 43.941 165.467 44.267 165.259 44.606 C 165.231 44.645 165.186 44.667 165.139 44.666 C 165.099 44.666 165.039 44.626 165.039 44.586 C 164.97 44.311 164.632 43.386 164.439 43.486 C 164.061 43.761 163.747 44.116 163.52 44.525 C 163.52 44.565 163.48 44.585 163.46 44.605 C 165.262 44.709 167.2 44.809 168.559 44.869 L 168.557 44.866 Z M 170.375 43.687 C 170.44 42.355 170.574 41.028 170.775 39.71 C 169.327 39.664 163.251 39.39 159.745 39.451 C 159.705 39.751 159.385 41.769 159.126 44.566 C 159.238 44.546 159.352 44.539 159.465 44.546 C 159.456 44.534 159.456 44.518 159.465 44.506 C 160.331 43.193 160.437 42.906 160.544 43.127 L 160.744 44.106 C 161.604 42.559 161.805 42.822 162.003 44.006 C 162.083 43.887 162.183 43.767 162.283 43.647 C 162.493 43.402 162.77 43.147 163.022 43.347 C 163.229 43.603 163.373 43.904 163.442 44.226 C 163.679 43.858 163.984 43.539 164.342 43.287 C 164.547 43.206 164.777 43.317 164.842 43.527 C 164.98 43.761 165.094 44.009 165.182 44.266 C 165.222 44.186 165.282 44.106 165.342 44.006 C 165.618 43.62 165.76 43.387 165.942 43.387 C 166.261 43.387 166.328 43.987 166.382 44.306 C 166.574 44.033 167.045 43.392 167.361 43.287 C 167.761 43.153 167.751 43.965 167.681 44.387 C 167.947 44.205 168.183 43.983 168.381 43.728 C 168.418 43.633 168.527 43.588 168.621 43.628 C 168.778 43.706 168.738 44.211 168.721 44.387 C 168.908 44.078 169.075 43.758 169.221 43.428 C 169.277 43.29 169.39 43.247 169.481 43.428 C 169.593 43.86 169.667 44.302 169.701 44.747 C 169.969 44.448 170.167 44.093 170.28 43.708 C 170.277 43.664 170.377 43.657 170.377 43.69 L 170.375 43.687 Z M 163.342 44.626 C 163.237 44.52 163.048 43.375 162.782 43.507 C 162.47 43.735 162.211 44.028 162.023 44.366 C 162.008 44.443 161.915 44.474 161.856 44.423 C 161.828 44.398 161.816 44.362 161.823 44.326 C 161.794 43.965 161.72 43.609 161.603 43.267 C 161.503 43.022 160.678 44.538 160.764 44.367 C 160.733 44.43 160.624 44.417 160.624 44.347 L 160.424 43.308 L 159.544 44.547 C 160.306 44.529 161.745 44.569 163.344 44.629 L 163.342 44.626 Z" style="fill-rule: evenodd; fill: rgb(0, 110, 255);" transform="matrix(1, 0, 0, 1, 0, 3.552713678800501e-15)"/>
  <path class="a" d="M 160.147 53.364 C 160.426 53.624 161.106 53.044 161.047 52.804 C 160.99 52.436 159.786 53 160.147 53.364 Z" style="fill-rule: evenodd; fill: rgb(0, 110, 255);" transform="matrix(1, 0, 0, 1, 0, 3.552713678800501e-15)"/>
  <path class="a" d="M 162.305 53.041 C 162.305 53.041 161.965 52.901 161.945 53.141 C 161.925 53.381 162.745 53.561 162.764 53.341 C 162.764 53.101 162.305 53.041 162.305 53.041 Z" style="fill-rule: evenodd; fill: rgb(0, 110, 255);" transform="matrix(1, 0, 0, 1, 0, 3.552713678800501e-15)"/>
  <path class="a" d="M 164.922 52.841 C 164.922 52.841 164.503 52.482 164.243 52.681 C 164.003 52.881 164.742 53.321 164.922 52.841 Z" style="fill-rule: evenodd; fill: rgb(0, 110, 255);" transform="matrix(1, 0, 0, 1, 0, 3.552713678800501e-15)"/>
  <path class="a" d="M 165.981 53.564 C 165.981 53.564 166.241 53.384 165.481 53.384 C 164.721 53.384 164.821 53.664 165.141 53.764 C 165.435 53.791 165.73 53.721 165.981 53.564 Z" style="fill-rule: evenodd; fill: rgb(0, 110, 255);" transform="matrix(1, 0, 0, 1, 0, 3.552713678800501e-15)"/>
  <path class="a" d="M 168.059 53.581 C 168.059 53.581 167.459 53.621 167.72 53.381 C 167.981 53.141 168.72 53.141 168.639 53.381 C 168.558 53.621 168.059 53.581 168.059 53.581 Z" style="fill-rule: evenodd; fill: rgb(0, 110, 255);" transform="matrix(1, 0, 0, 1, 0, 3.552713678800501e-15)"/>
  <path class="a" d="M 210.043 39.393 C 210.099 38.509 209.719 36.813 208.828 36.764 C 207.937 36.715 207.584 38.486 207.502 39.372 C 206.784 48.115 204.724 75.307 204.756 84.447 C 204.744 85.361 204.982 86.542 205.898 86.592 C 206.814 86.642 207.38 85.364 207.358 84.452 C 207.132 77.164 208.6 62.194 210.043 39.393 Z M 209.943 39.388 C 208.626 59.588 206.854 76.488 207.096 84.477 C 207.12 85.241 206.659 86.414 205.91 86.377 C 205.161 86.34 205.021 85.238 204.995 84.485 C 205.012 75.355 206.995 47.549 207.62 39.422 C 207.7 38.622 208.005 36.882 208.799 36.922 C 209.574 36.964 209.996 38.564 209.943 39.388 Z" style="fill-rule: evenodd; fill: rgb(0, 110, 255);" transform="matrix(1, 0, 0, 1, 0, 3.552713678800501e-15)"/>
  <path class="a" d="M 209.103 45.309 C 209.148 44.68 208.919 43.435 208.427 43.409 C 207.935 43.383 207.706 44.709 207.659 45.335 C 206.931 54.972 205.742 72.908 205.67 79.171 C 205.66 79.801 205.77 80.649 206.27 80.677 C 206.77 80.705 207.089 79.777 207.076 79.144 C 206.991 72.917 208.372 55.456 209.103 45.309 Z" style="fill-rule: evenodd; fill: rgb(0, 110, 255);" transform="matrix(1, 0, 0, 1, 0, 3.552713678800501e-15)"/>
  <path class="a" d="M 108.175 58.911 C 108.2 58.688 108.243 58.449 108.286 58.225 C 108.394 57.77 107.725 57.551 107.62 58.05 C 107.566 58.291 107.527 58.545 107.489 58.8 C 107.432 59.062 107.679 59.287 107.934 59.206 C 108.066 59.164 108.161 59.048 108.175 58.911 Z" style="fill-rule: evenodd; fill: rgb(0, 110, 255);" transform="matrix(1, 0, 0, 1, 0, 3.552713678800501e-15)"/>
  <path class="a" d="M 136.888 63.272 C 136.764 61.15 136.449 59.044 135.949 56.978 C 136.131 56.816 136.382 56.564 136.428 56.518 C 136.78 56.167 136.183 56.384 135.849 56.718 C 135.614 55.909 135.109 54.682 134.27 54.699 C 133.832 54.71 133.412 54.881 133.091 55.179 C 132.991 55.079 132.891 54.999 132.891 54.999 C 132.845 54.954 132.757 54.874 132.711 54.919 C 132.691 54.942 132.691 54.976 132.711 54.999 C 132.732 55.041 132.636 54.85 132.911 55.399 C 132.409 56.06 132.079 56.836 131.952 57.657 C 131.668 54.579 131.417 54.09 131.446 53.904 C 131.728 53.584 131.984 53.242 132.211 52.881 C 132.242 52.851 132.228 52.798 132.186 52.787 C 132.167 52.781 132.146 52.787 132.132 52.801 C 132.025 52.92 131.472 53.481 131.372 53.581 C 131.287 53.324 130.836 50.899 129.694 49.881 C 129.754 49.805 129.807 49.725 129.854 49.641 C 129.881 49.606 129.86 49.555 129.817 49.549 C 129.802 49.547 129.786 49.551 129.774 49.561 C 129.71 49.608 129.634 49.654 129.534 49.721 C 129.204 49.452 128.773 49.342 128.355 49.421 C 126.879 49.551 126.135 51.227 125.777 52.657 C 125.737 52.638 125.359 52.365 125.318 52.338 C 125.285 52.309 125.233 52.327 125.225 52.37 C 125.222 52.384 125.224 52.397 125.231 52.409 C 125.36 52.589 125.502 52.759 125.657 52.917 C 125.44 53.891 125.294 54.88 125.218 55.875 C 125.043 55.92 124.875 55.987 124.718 56.075 C 124.669 56.075 124.647 56.175 124.738 56.175 C 124.638 56.187 125.097 56.135 125.198 56.135 C 125.158 56.635 125.138 57.154 125.118 57.654 C 125.073 59.054 125.118 59.428 125.088 59.463 C 124.962 59.368 124.683 59.088 124.538 59.232 C 124.538 59.397 124.984 59.725 125.118 59.792 C 125.157 62.503 125.269 63.14 125.253 63.276 C 124.88 63.295 124.527 63.448 124.259 63.708 C 124.226 64.031 125.65 74.229 126.297 76.277 C 129.718 77.894 133.717 77.722 136.987 75.817 L 137.646 63.848 C 137.481 63.562 137.208 63.355 136.888 63.272 Z M 124.418 63.798 C 124.585 63.717 125.209 63.436 125.235 63.427 C 125.275 63.947 125.258 64.227 125.278 64.37 C 124.972 64.209 124.684 64.018 124.418 63.798 Z M 125.418 64.531 C 125.418 64.631 125.238 61.584 125.238 59.995 C 125.31 60.031 125.527 60.149 125.558 60.075 C 125.658 59.825 125.458 59.775 125.238 59.655 C 125.232 58.486 125.285 57.318 125.398 56.155 C 125.714 56.089 126.017 55.975 126.298 55.816 C 126.343 55.796 126.369 55.716 126.278 55.716 C 125.992 55.707 125.707 55.754 125.439 55.856 C 125.527 54.942 125.674 54.034 125.878 53.138 C 126.017 53.238 126.284 53.438 126.438 53.538 C 126.47 53.568 126.522 53.552 126.533 53.51 C 126.535 53.497 126.534 53.484 126.529 53.473 C 126.365 53.239 126.181 53.019 125.978 52.818 C 126.349 51.427 127.056 49.661 128.496 49.661 C 127.801 51.172 127.433 52.813 127.417 54.477 C 127.382 54.45 127.332 54.471 127.325 54.514 C 127.323 54.529 127.328 54.545 127.337 54.557 C 127.355 54.591 127.375 54.625 127.397 54.657 C 127.323 55.324 127.473 55.112 127.257 55.436 C 127.202 55.491 127.286 55.585 127.377 55.496 C 127.377 55.587 127.36 57.229 127.477 58.833 C 127.427 58.816 127.307 58.756 127.177 58.713 C 127.157 58.693 127.117 58.713 127.097 58.733 C 127.077 58.753 127.097 58.793 127.117 58.813 L 127.357 59.053 C 127.397 59.092 127.457 59.112 127.497 59.153 C 127.429 59.153 127.018 59.653 126.977 59.692 C 126.95 59.727 126.971 59.777 127.014 59.783 C 127.029 59.786 127.045 59.781 127.057 59.772 C 126.944 59.839 127.457 59.522 127.557 59.472 C 127.668 61.372 128.036 63.543 128.036 63.708 C 127.996 63.688 127.936 63.648 127.896 63.628 C 127.796 63.569 127.717 63.547 127.656 63.508 C 127.607 63.475 127.553 63.448 127.497 63.429 C 127.438 63.399 127.372 63.464 127.437 63.529 C 127.571 63.683 127.725 63.818 127.896 63.929 C 127.916 63.929 127.916 63.949 127.936 63.949 C 127.896 63.989 127.856 64.009 127.817 64.049 C 127.725 64.137 127.638 64.231 127.557 64.329 C 127.475 64.37 127.568 64.477 127.617 64.429 C 127.665 64.412 127.712 64.392 127.757 64.369 C 127.887 64.332 128.008 64.268 128.113 64.183 C 128.142 64.309 128.264 65.283 128.277 65.383 C 127.29 65.23 126.328 64.944 125.419 64.531 L 125.418 64.531 Z M 128.418 65.413 C 128.388 65.259 128.298 64.451 128.274 64.213 C 128.274 64.224 128.283 64.233 128.294 64.233 C 128.413 64.319 128.54 64.393 128.674 64.453 C 128.893 64.526 128.896 64.57 128.953 64.513 C 129.036 64.43 128.475 64.054 128.394 63.973 C 128.544 63.844 128.684 63.704 128.814 63.554 C 128.895 63.513 128.802 63.405 128.754 63.454 C 128.567 63.533 128.386 63.626 128.214 63.734 C 128.214 63.488 127.714 59.334 127.814 59.334 C 127.909 59.391 128.009 59.438 128.114 59.474 C 128.268 59.513 128.26 59.548 128.314 59.494 C 128.348 59.426 128.014 59.124 127.954 59.094 C 128.089 58.99 128.21 58.87 128.314 58.735 C 128.368 58.68 128.488 58.57 128.434 58.515 C 128.411 58.495 128.377 58.495 128.354 58.515 C 128.134 58.608 127.932 58.736 127.754 58.895 C 127.63 57.108 127.634 56.281 127.634 55.258 C 127.94 55.058 127.666 54.994 128.213 55.298 C 128.265 55.35 128.349 55.298 128.293 55.218 C 128.217 55.097 128.13 54.983 128.033 54.878 C 128.168 54.735 128.283 54.574 128.373 54.399 C 128.402 54.366 128.385 54.314 128.342 54.305 C 128.331 54.303 128.318 54.304 128.307 54.309 C 128.143 54.415 127.99 54.539 127.853 54.679 C 127.81 54.641 127.763 54.608 127.713 54.579 C 127.713 52.912 128.014 51.258 128.603 49.698 C 128.842 49.74 129.066 49.843 129.252 49.998 C 129.192 50.046 128.798 50.423 128.892 50.517 C 128.971 50.596 129.376 50.217 129.452 50.138 C 130.329 51.226 130.895 52.531 131.09 53.914 C 130.99 54.014 130.79 54.371 130.711 54.474 C 130.684 54.509 130.705 54.559 130.748 54.565 C 130.763 54.568 130.779 54.563 130.791 54.554 C 130.691 54.654 131.05 54.314 131.151 54.214 C 131.869 57.905 131.751 60.989 131.81 65.464 C 130.682 65.58 129.544 65.563 128.42 65.413 L 128.418 65.413 Z M 132.171 65.413 C 132.19 64.454 132.25 61.836 132.071 58.979 C 132.069 57.793 132.417 56.632 133.071 55.642 C 133.152 55.765 133.254 55.873 133.371 55.962 C 133.422 56.013 133.521 56.111 133.571 56.062 C 133.591 56.039 133.591 56.006 133.571 55.983 C 133.497 55.785 133.389 55.603 133.251 55.443 C 133.522 55.171 133.887 55.014 134.27 55.003 C 134.643 56.279 134.91 57.583 135.07 58.903 C 134.97 58.803 134.927 58.803 134.87 58.803 C 134.797 58.798 134.744 58.825 134.79 58.883 C 134.883 59.008 134.983 59.128 135.09 59.242 C 135.09 59.254 135.072 59.249 134.73 59.762 C 134.678 59.814 134.745 59.893 134.81 59.842 C 134.91 59.767 135.042 59.68 135.15 59.582 C 135.269 60.575 135.475 62.614 135.466 62.695 C 135.403 62.651 135.02 62.427 134.99 62.495 C 134.949 62.595 135.345 62.977 135.426 62.995 C 135.536 62.895 135.006 63.352 135.11 63.455 C 135.148 63.494 135.261 63.42 135.31 63.396 C 135.505 63.296 135.51 63.276 135.529 63.276 C 135.549 63.495 135.629 64.435 135.649 64.694 C 134.513 65.03 133.35 65.269 132.173 65.41 L 132.171 65.413 Z M 135.771 64.613 C 135.771 64.46 135.731 63.32 135.731 63.194 C 135.899 63.326 136.08 63.44 136.271 63.534 C 136.447 63.575 136.303 63.414 136.191 63.274 C 136.085 63.16 135.971 63.053 135.851 62.954 C 135.981 62.83 136.101 62.696 136.211 62.554 C 136.241 62.522 136.224 62.469 136.181 62.46 C 136.163 62.456 136.145 62.461 136.131 62.473 C 135.966 62.537 135.811 62.625 135.671 62.733 C 135.671 62.64 135.582 61.249 135.371 59.496 C 135.408 59.521 135.539 59.571 135.63 59.636 C 135.69 59.679 135.76 59.627 135.71 59.556 C 135.641 59.431 135.555 59.316 135.456 59.214 C 135.524 59.126 135.868 58.736 135.79 58.657 C 135.745 58.612 135.641 58.699 135.59 58.737 C 135.312 58.922 135.331 59.018 135.331 58.917 C 135.156 57.584 134.848 56.272 134.411 55 C 134.767 55.065 135.156 55.33 135.711 56.939 C 135.672 56.973 135.638 57.014 135.611 57.058 C 135.437 57.29 135.486 57.322 135.731 57.198 C 135.751 57.178 135.771 57.178 135.791 57.158 C 136.372 59.483 136.727 61.859 136.85 64.252 C 136.549 64.351 136.189 64.49 135.769 64.611 L 135.771 64.613 Z M 136.971 64.213 C 136.951 63.973 136.931 63.713 136.911 63.413 C 137.033 63.494 137.517 63.894 137.517 63.894 C 137.517 63.894 137.191 64.102 136.968 64.211 L 136.971 64.213 Z" style="fill-rule: evenodd; fill: rgb(0, 110, 255);" transform="matrix(1, 0, 0, 1, 0, 3.552713678800501e-15)"/>
</svg>