<?xml version="1.0" ?><svg viewBox="0 0 200 200" xmlns="http://www.w3.org/2000/svg"><defs><style>.a{fill-rule:evenodd;}</style></defs><path class="a" d="M69.4,58.015a17.718,17.718,0,0,1,2.4-1.4.08.08,0,1,0,0-.16c-1.134-.189-2.58,1.521-2.478,1.419C69.253,57.91,69.328,58.053,69.4,58.015Z"/><path class="a" d="M68.719,67.712c.153-.093.4-.369.365-.448-.058-.121-.434.014-.6.147a.662.662,0,0,0-.28.534C68.222,68.018,68.655,67.751,68.719,67.712Z"/><path class="a" d="M70.305,66.8c-.146.368-.135.58-.062.563a.645.645,0,0,0,.32-.979C70.51,66.387,70.345,66.7,70.305,66.8Z"/><path class="a" d="M71.347,66.774c.1.283.442.246.478.146.012-.036-.153-.243-.173-.279-.006-.011-.075-.271-.15-.274C71.389,66.362,71.281,66.591,71.347,66.774Z"/><path class="a" d="M118.539,80.654c.53.618,30.468,8.937,53.611,10.07l.2-.179c.347-7.317,2.328-47.369,3.737-54.65,0-.166-.025-.162-.14-.22-11.838-1.463-33.777-1.885-54.91.1C120.571,36.242,117.016,61.823,118.539,80.654Zm57.167-44.639c-12.159-1.479-33.57-1.94-54.609-.08-.14.819-1.619,10.37-2.318,22.259a163.116,163.116,0,0,0,.06,22.32c14.606,4.382,36.913,9.031,53.131,9.831C172.31,82.918,174.285,43.407,175.706,36.015Z"/><path class="a" d="M136.8,42.217c-.206.711-.23,1.437.22,1.475,6.625.228,11.62.335,18.143.335.88,0,12.075-.048,12.209-.385a2.53,2.53,0,0,0-.1-1.878.133.133,0,0,0-.1-.067s-3.577-.067-9.111-.05C152.893,41.647,136.952,42.09,136.8,42.217Zm30.312-.285c-.116,0-19.816-.056-30.252.352a2.955,2.955,0,0,0-.1.872c.02.218.06.419.26.419,3.733.1,26.453.427,30.132-.1A2.8,2.8,0,0,0,167.114,41.932Z"/><path class="a" d="M139.772,47.659c-.161.619-.272,1.43.176,1.479,5.795.36,10.173.567,15.908.7,6.17.123,10.118.029,10.646-.06.053-.015.089-.048.089-.082a2.993,2.993,0,0,0-.045-1.862.1.1,0,0,0-.1-.069C160.786,47.634,156.232,47.241,139.772,47.659Zm26.6.3c-3.546-.2-17.178-.458-26.51-.252-.055.321-.255,1.3.093,1.31,3.4.178,23.041.977,26.416.517A3.3,3.3,0,0,0,166.368,47.963Z"/><path class="a" d="M139.628,52.557c-.161.621-.272,1.43.177,1.48,5.818.36,10.173.566,15.907.7,6.17.124,10.118.029,10.647-.06.052-.015.088-.048.089-.081a3.006,3.006,0,0,0-.045-1.862.1.1,0,0,0-.1-.07C159.575,52.484,155.285,52.16,139.628,52.557Zm26.6.32c-3.546-.2-17.177-.457-26.51-.251-.055.32-.254,1.3.093,1.31,3.4.178,23.041.976,26.416.517A3.279,3.279,0,0,0,166.224,52.877Z"/><path class="a" d="M139.484,57.472c-.161.619-.272,1.43.177,1.48,5.805.36,10.184.567,15.907.7,6.17.124,10.118.029,10.647-.06.053-.015.088-.048.089-.081a3.006,3.006,0,0,0-.045-1.862.1.1,0,0,0-.1-.07C160.486,57.447,155.945,57.054,139.484,57.472Zm26.579.32c-3.547-.2-17.178-.457-26.51-.251-.055.319-.255,1.3.093,1.31,3.4.177,23.04.976,26.416.517a2.829,2.829,0,0,0,.088-.786A1.485,1.485,0,0,0,166.063,57.792Z"/><path class="a" d="M139.34,62.387c-.161.621-.271,1.431.177,1.48,5.773.358,10.174.567,15.908.7,6.169.124,10.117.029,10.646-.059.053-.016.088-.049.089-.082a3.007,3.007,0,0,0-.045-1.862.1.1,0,0,0-.1-.07C160.343,62.362,155.8,61.969,139.34,62.387Zm26.579.3c-3.525-.2-17.122-.457-26.51-.251-.055.32-.254,1.3.093,1.31,3.407.178,23.048.976,26.416.517a2.785,2.785,0,0,0,.088-.786A1.5,1.5,0,0,0,165.919,62.69Z"/><path class="a" d="M124.2,65.888c-.131.494-.288,1.409.16,1.462,13.973,1.817,41.614,2.34,41.624,1.937a3.006,3.006,0,0,0-.046-1.862C165.9,67.316,124.274,65.691,124.2,65.888Zm.087.069c-.081.249-.251,1.284.111,1.294,13.459,1.659,39.113,2.093,41.413,1.915a2.882,2.882,0,0,0-.035-1.56C165,67.571,128.826,66.027,124.286,65.957Z"/><path class="a" d="M124.4,69.758c-.072.485-.115,1.48.333,1.533,13.588,1.788,40.971,2.831,40.982,2.375a3.006,3.006,0,0,0-.045-1.862.121.121,0,0,0-.1-.07c-2.574-.058-25.865-1.848-41.113-2.025Zm.1.053c-.054.344-.088,1.292.249,1.38,13.539,1.689,38.8,2.5,40.755,2.353a2.892,2.892,0,0,0-.035-1.56C164.721,71.933,129.027,69.9,124.505,69.811Z"/><path class="a" d="M124.223,72.94c-.091.48-.174,1.474.271,1.545,13.941,2.406,40.826,4.447,40.855,4.014a3.005,3.005,0,0,0,.029-1.862.118.118,0,0,0-.1-.074c-3.859-.249-25.065-2.845-41-3.67Zm.084.056c-.067.341-.14,1.287.194,1.389,13.481,2.233,38.68,4.056,40.627,3.983a2.876,2.876,0,0,0,.028-1.56C155.626,75.782,133.86,73.525,124.307,73Z"/><path class="a" d="M124.355,77.307c-.1.48-.214,1.47.23,1.552,13.868,2.788,40.687,5.567,40.728,5.135a3,3,0,0,0,.08-1.861.117.117,0,0,0-.1-.076c-3.506-.32-25.1-3.543-40.883-4.8Zm.1.06c-.076.34-.176,1.283.155,1.394,13.391,2.6,38.542,5.117,40.5,5.1a2.886,2.886,0,0,0,.071-1.558C164.437,82.2,128.962,77.758,124.456,77.367Z"/><path class="a" d="M131.587,122.136c42.9-19.09,41.006-18.314,47.316-20.661.1,0,1.2-.867-11.589,4.376-12.159,5.041-35.845,16.07-35.767,16.225C131.527,122.136,131.567,122.156,131.587,122.136Z"/><path class="a" d="M185.133,46.92c.807-6.5,1.037-6.489.915-6.559-.027.007-.055.014-.064.032-1.259,6.415-2.1,16.1-2.572,21.767-.127,1.586-1.911,32.874-1.763,32.883C182,94.736,182.805,67.245,185.133,46.92Z"/><path class="a" d="M131.3,120.442c42.9-19.09,41.006-18.313,47.316-20.661.1,0,1.21-.872-11.589,4.376C156.579,108.488,130.46,120.442,131.3,120.442Z"/><path class="a" d="M182.72,44.358c.777-6.573,1.107-7.072.979-7.146-.027.007-.055.014-.065.031-3.183,16.761-4.911,61.544-4.8,59.367C179.043,97.422,180.564,63.116,182.72,44.358Z"/><path class="a" d="M95.2,100.693c-.949.581,17.7,6.169,18.633,6.029a59.25,59.25,0,0,0,7.914-2.816c.292-.164.631-.356.474-.574-.678-.974-17.6-5.119-18.741-5.393C102.086,97.939,94.99,100.778,95.2,100.693Zm8.244-2.55c-.879-.1-7.29,2.307-8.122,2.621,1.624,1.194,17.922,5.83,18.447,5.7,1-.223,7.482-2.341,8.186-3.01C121.245,102.608,105.251,98.671,103.448,98.143Z"/><path class="a" d="M89.965,91.883c-.044,0-.054.066-.02.1,3.3,2.557,49.62,13.621,51.813,13.308,2.234-.4,21.941-5.476,23.218-7.073.08-.1.08-.22-.04-.36-2.131-2.128-49.1-11.552-51.992-12.129C109.15,85.729,89.371,92.07,89.965,91.883Zm2.878-.759c-1.439.44-2.438.739-2.758.839,3.626,2.448,49.635,13.421,51.633,13.088.639-.119,2.317-.519,4.5-1.079C145.514,103.812,93.082,91.184,92.843,91.124ZM96.7,89.965c-1.359.4-2.6.779-3.657,1.1.68.16,52.892,12.748,53.371,12.868,1.2-.319,2.558-.659,3.957-1.059C145.372,101.69,96.8,89.965,96.7,89.965Zm4.516-1.319c-1.479.42-2.957.86-4.316,1.259.6.14,53.111,12.768,53.71,12.908,1.4-.379,2.858-.8,4.276-1.2C154.186,101.455,101.375,88.686,101.215,88.646Zm4.116-1.139c-1.259.34-2.578.7-3.9,1.079.679.16,53.171,12.829,53.67,12.949,1.019-.3,3.657-1.1,3.977-1.2C158.342,100.176,105.471,87.547,105.331,87.507Zm3.4-.859c-.817.2-2.276.568-3.157.819.7.16,53.191,12.689,53.75,12.829,1.1-.36,2.118-.7,2.958-1C161.579,99.137,109.148,86.748,108.728,86.648Zm53.711,12.569a9.61,9.61,0,0,0,2.337-1.119c-1.019-1.03-13.638-3.919-15.186-4.276-5.734-1.339-36.426-7.813-36.646-7.853a18.042,18.042,0,0,0-3.956.659C109.767,86.808,161.879,99.077,162.439,99.217Z"/><path d="M180.062,103.193c.04,0,.04-.04.04-.06,0-.04-.04-.04-.06-.04-2.451.845-6.707,2.49-7.253,2.718-.38-.42-.619-.62-.659-.56-2.2.58-7.274,3.457-7.274,3.457.1.1.22.18.34.28-.366.15-32.662,14.754-32.55,14.866s28.614-12.892,32.81-14.707a63.121,63.121,0,0,1,9.291,9.931c.9-2.837-.8-6.554-.8-6.554a29.5,29.5,0,0,1,4.935,4.017,25.833,25.833,0,0,0-5.954-10.551C173.565,105.714,177.293,104.191,180.062,103.193Z"/><path d="M191.612,97.758c3.765-6.957,5.8-17.319-1.579-20.381,1.212-19,2.168-41.4,2.178-41.5,0,0-.96-.436-1.379,1.219a10.5,10.5,0,0,1-3.2-1.1,18.253,18.253,0,0,1-5.535-4.676c.142-.567-3.376-.944-3.9-1-14.949-1.512-59.316,1.1-60.284,1.1a.15.15,0,0,0-.14.1c-4.554,11.479-4.975,39.506-4.766,51.857A132.677,132.677,0,0,0,94.9,87.148a156.57,156.57,0,0,0-17.693,5.933c-5.39-5.212-5.673-5.62-7.824-7.332a29.994,29.994,0,0,0,1.279-6.914c.1-.02.44-.2.739-1.039a10.006,10.006,0,0,0,.48-2.438c1.258-.786,2.807-2.107,2.517-3.556-.107-.54-.671-.622-1.158-.46,0-.1.314-.672.1-1.059-.072-.129-.182-.24-.56-.24a5.158,5.158,0,0,0,1.639-2.537c.1-1.064-.513-1.361-1.539-1.019l.18-.52c1.278-.593,1.716-1.287,1.6-1.678,0-.02-.02-.02-.02-.04a9.759,9.759,0,0,1-1.019-4.216c-.142-4.4,1.924-4.984,1-12.009-.138-1.388-.273-.886.06-1.319a1.654,1.654,0,0,0,.04-2.3c.839.679,2.6,1.918,2.678.4.1-2-3.717-7.933-17.464-7.514S40.091,47.5,41.61,49.422s2.238-2.577,2.517-2.717c0,0-1.6,6.014.2,5.415a2.117,2.117,0,0,0,.939-.7,11.839,11.839,0,0,0,2.7,9.291c-.36.42-9.471,11.21-9.731,11.529C26.264,71.4,19.29,75.219,15.254,80.514c-5.335,7.013-5.475,16.644-5.135,21.42-.02-.02-.06,0-.08.02-.055.055.035.117.1.16.14,1.719.319,2.757.319,2.757,0,.04.04.061.08.061.159,0-.058-.223-.239-2.678a74.1,74.1,0,0,0,7.612,4.716c-5.554-2.118-9.131-2.318-10.29-.82-2.458,3.137-8.292,27.175,13.048,63.142,0,0,31.311,1.879,56.708,0a170.945,170.945,0,0,0-12.908-24.1,21.8,21.8,0,0,0,3.7-.54,12.751,12.751,0,0,0,4.291-1.8c.606.325,6.989,9.642,24.223,15.491a35.732,35.732,0,0,0,12.948,1.739c3.282,8.777,3.242,9.291,3.4,9.291.04-.02.155-.088.135-.127a40.478,40.478,0,0,0-2.886-9.234,39.314,39.314,0,0,0,10.264-2.028,59.619,59.619,0,0,0,20.781-12.089.143.143,0,0,0,.06-.12,33.5,33.5,0,0,0-.06-5.155,16.668,16.668,0,0,0,1.6-.66c.111.038,43.7,14.434,43.779,14.107s-42.691-14.1-43.37-14.323a18.358,18.358,0,0,0,4.606-3.161.227.227,0,0,0,.06-.16,13.059,13.059,0,0,0-.34-1.718,8.541,8.541,0,0,0,2.638-1.279c4.8,2.931,17.237-2.443,15.246-9.471a1.788,1.788,0,0,0-.42-.72,7.065,7.065,0,0,1,5.075-1.358c3.2.363,12.509,5.322,21.361-.919C200.4,114.684,187.858,104.65,191.612,97.758Zm-6.794-63.3a11.914,11.914,0,0,0,5.994,2.817c-.141.707.042-2.292-2.551,39.493a16.024,16.024,0,0,0-3.277-.359c1.815-28.594,4.246-33.718,3.89-33.718-.02,0-.06.02-.06.04-3.6,14.537-4.793,41.081-5.015,55.229a.063.063,0,0,0,.06.06c.1,0,0,1.344,1.1-21.4a14.553,14.553,0,0,1,3.277.4c-.8,12.648-1.482,23.714-1.562,24.833-1.929-2.7-5.782-4.09-9.091-4.256,0,.1-1.482-9.722-.54-26.675a313.058,313.058,0,0,1,5-39.424A16.552,16.552,0,0,0,184.818,34.456Zm-66.779-2.717c5.38-.344,58.312-2.928,63.662-.34-3.76,18.384-6.855,47-4.456,65.959-.711-.142-52.355-10.715-64-13.98C113.01,71.176,113.567,43.084,118.039,31.739Zm-4.93,51.838c11.463,3.3,52.421,11.729,64.036,14.141a174.753,174.753,0,0,0-24.737,8.353,234.361,234.361,0,0,0-23.665,11.3c-4.344-1.789-36.095-14.7-44.153-17.075-2.364-2.364-4.689-4.613-7.171-7.012A187.765,187.765,0,0,1,113.109,83.577ZM97.558,114.682c-1.2-1.518-2.256-2.789-3.454-4.188,14.017,6.331,23.347,10.218,28.112,12.641,3.978,1.962,3.786,2.087,3.9,1.978.083-.167-5.407-3.085-12.848-6.514-2.358-1.1-18.963-8.333-19.482-8.552-.66-.78-1.147-1.351-1.827-2.11,5.953,2.232,24.31,9.452,34.057,14.558.059.03.125-.034.06-.1-8.678-4.9-24.828-11.4-34.468-14.866-1.059-1.179-2.031-2.207-3.11-3.346,32.4,12.542,34.167,12.977,38.677,15.195.059.03.125-.035.06-.1-9.059-4.6-28.084-11.3-39-15.326-1.139-1.179-2.005-2.066-3.164-3.224,6.7,2.094,43.375,16.866,43.477,16.912a9.447,9.447,0,0,1,.869,2.338,28.546,28.546,0,0,1,.7,6.414c-1.818-.22-4.2-.34-6.773-.4Zm21,11.29c-6.094.04-11.929.34-12.788.38-2.178-3.457-4.356-6.574-6.534-9.472C101.155,117.8,115.622,124.693,118.559,125.972ZM69.224,85.649c-.22-.18-.459-.359-.7-.539a17.138,17.138,0,0,0,1.445-6.036,4.845,4.845,0,0,0,.493-.139C70.069,80.513,69.509,84.225,69.224,85.649Zm-4.635-10.53a6.879,6.879,0,0,0,.479,1.518,24.96,24.96,0,0,0-2.6,4.556c-.38-.22-.78-.439-1.159-.639C61.956,79.652,64.1,76.1,64.589,75.119Zm-3.437,5.335c-.36-.18-.72-.38-1.079-.56.04-.259.559-5.055.6-5.435a23.034,23.034,0,0,0,3.737.58A37.058,37.058,0,0,0,61.152,80.454Zm4.036-3.617a.948.948,0,0,0,.24.36,4.09,4.09,0,0,0,2.238,1.818,27.439,27.439,0,0,0-1.8,4.216q-1.59-1.048-3.238-1.978C62.907,80.7,64.5,78.381,65.188,76.837Zm2.638,2.278a4.586,4.586,0,0,0,1.978.02c-.529,2.641-1.238,5.252-1.4,5.895-.779-.58-1.579-1.139-2.378-1.679A23.6,23.6,0,0,0,67.826,79.115Zm2.7-.6a3.861,3.861,0,0,1-4.835-1.439,6.907,6.907,0,0,1-.94-2.018,7.746,7.746,0,0,0,4.037-.759q.03.088.06.18a.719.719,0,0,0,.679.279,1.6,1.6,0,0,0-.3.639c-.088.487.4.7.9.7a2.839,2.839,0,0,0,1.539-.6C71.555,76.127,71.1,78.228,70.523,78.516ZM73.3,73.74a10.462,10.462,0,0,1-2.618,1.9,1.437,1.437,0,0,1-1.119.04c-.235-.182.019-.666.18-.919,1.393-.161,2.834-1.935,3.357-3.177C74.514,71.178,74.3,72.628,73.3,73.74Zm-.5-3.477c.12.02.24.04.3.16.353.619-2.13,4.314-3.8,3.956-.805,0,1.738-2.776,2.378-3.416C72.648,70.19,72.419,70.263,72.8,70.263Zm1.279-2.777c-.148,1.014-2.2,3.216-3.7,3.716-.8.267-1.038-.076-.839-.579a7.962,7.962,0,0,1,2.118-2.378c1.22-.955,1.159-.521,1.159-.739,0-.121-.206-.018-.38.04l.32-.939c.02.019.06.04.08.019C72.941,66.591,74.278,66.128,74.08,67.486ZM46.146,56.956a13.931,13.931,0,0,1-.62-5.975,9.056,9.056,0,0,0,.959-3.1s-.4,5.595,1.7,4.416a2.993,2.993,0,0,0,1.378-3.217c-.191-.862-.125-.792,0,0,1.036,4.231,4.177,1.248,4.5-2.358,0,0,.18,4.256,1.479,3.7s2.578-4.875,2.578-4.875.059,4.7,1.758,3.817c1.767-.916,2.093-4.209,2.031-3.771-.065.453-.377,4.012,1.126,3.211,1.559-.819,1.6-3.117,1.6-3.257a7.642,7.642,0,0,0,.68,3,4.6,4.6,0,0,0-.4,1.819c-.073,4.353.324,5.665-1.678,7.753-2.061,2.175-.5,5.914-.6,6.733-.66.661-1.672,1.356-2.357.72.23-4.389-.69-8.719-4.676-6.914-1.478.7-2.78,4.627-.22,6.434a9.079,9.079,0,0,1-7.013-4.459A9.488,9.488,0,0,1,46.146,56.956Zm2,4.081a8.127,8.127,0,0,0,7.415,4.211.077.077,0,0,0,.06-.02,5.338,5.338,0,0,0,1.937.642c-.154,1.848,2.007,2.107,2.3.577a1.091,1.091,0,0,0-.7-1.319c-.137-.051-.72-.2-.72-.02a.086.086,0,0,0,.08.08,1.322,1.322,0,0,1,.8.38.933.933,0,0,1,.14.8c-.2,1.095-1.8.876-1.8-.5a2.772,2.772,0,0,1,.478,0,.09.09,0,0,0,.02-.179c-2.338-.24-3.417-1.279-3.757-2.518-.482-1.8.544-3.842,1.4-4.216,1.377-.587,2.569-.509,3.3.779.861,1.46.956,4.218.8,5.835a.248.248,0,0,0,.06.179c1.265,1.32,3.2-.659,3.2-.8.146-.658-.552-2.489-.44-4.2.2-2.856,2.085-2.526,2.558-5.415a36.422,36.422,0,0,0,.1-5.035,4.2,4.2,0,0,1,.32-1.639.6.6,0,0,0,.619-.14,5.538,5.538,0,0,0,1.639-2.338,5.192,5.192,0,0,0,.215-.648,5.235,5.235,0,0,0,.084.528c.924,4.366,3.723,2.136,3.557-1.658,0,0,1.279,3.137,2.438,2.618a20.817,20.817,0,0,1-.38,8.512c-1.149,3.668-.618,6.962.48,8.792.02.06-.008.312-.34.659a4.277,4.277,0,0,1-1.119.759.064.064,0,0,0-.06.06l-.442,1.45a1.185,1.185,0,0,0-.477-.111,3.522,3.522,0,0,0-2.3,1.34c-.082.119.029.17.182.077.588-.36,1.808-1.242,2.549-1.156l-.011.039c0,.04,0,.08.039.1-1.308.654-4.1,3.059-2.957,3.956a1.48,1.48,0,0,0,1.5-.1c-.546.5-1.953,1.923-2.058,2.658-1.889,1.133-6.076.465-8.253-.06a.215.215,0,0,0-.16.04.2.2,0,0,0-.08.14s-.4,5.295-.419,5.594a90.457,90.457,0,0,0-21.255-7.48C39.018,71.915,47.842,61.376,48.142,61.037ZM15.694,105.431c-2.978-1.7-4.9-3-5.415-3.377-.34-4.716-.24-14.367,5.135-21.4,4-5.236,10.91-8.972,22.759-8.133A93.646,93.646,0,0,1,56.3,78.436a54.961,54.961,0,0,1,15.946,10.31c6.873,6.774,13.207,12.589,19.322,19.422-3.911,6.381-11.295,8.588-18.743,8.952a52.886,52.886,0,0,1-13.28-1.087,71.858,71.858,0,0,1-1.347-9.483.08.08,0,1,0-.16,0,87.2,87.2,0,0,0,1.24,9.511C44.125,117.724,28.938,112.859,15.694,105.431Zm54.569,38.225a21.322,21.322,0,0,1-6.054,1.2c-5.635-8.672-12.828-17.7-21-23.438a158.206,158.206,0,0,0-15.825-9.972c10.1,4.019,21.088,6.214,31.95,4.776a56.1,56.1,0,0,0,12.949,26.436A8.47,8.47,0,0,1,70.263,143.656Zm2.458-.959a55.593,55.593,0,0,1-13.188-26.5,50.23,50.23,0,0,0,13.328,1.279c7.64-.367,14.9-2.622,18.823-9.192.6.7,1.234,1.385,1.858,2.078a103.763,103.763,0,0,1,11.873,16.1c-2.772,8.53-9.022,13.586-17.628,15.547A45.3,45.3,0,0,1,72.721,142.7Zm68.357,2.977A59.346,59.346,0,0,1,120.5,157.643a37.727,37.727,0,0,1-23.6.319A55.584,55.584,0,0,1,72.881,142.9c14.323,1.884,28.748-2.255,32.87-16.166,4.091-.135,19.265-.883,25.356.2a11.152,11.152,0,0,1,7.294,5.276C140.159,135,141.438,139.24,141.078,145.674Zm1.619-14.607a20.656,20.656,0,0,0-3.857,1.159c-.145-.145.117.064-.779-1.159,1.437-.538,4.618-1.513,6.094-1.079a4.381,4.381,0,0,1,.94.78A11.356,11.356,0,0,0,142.7,131.067Zm2.577-.139a7.929,7.929,0,0,1,1.3,1.918c-.891.549-3,1.4-6.194,2.817a17.382,17.382,0,0,0-1.439-3.3C139.234,132.268,143.971,131.058,145.274,130.928Zm-4.835,4.915c1.78-.591,4.775-1.584,6.214-2.818a10.855,10.855,0,0,1,.759,2.2c-.98,1.07-3.979,2.8-6.174,4.2A22.746,22.746,0,0,0,140.439,135.843Zm.919,4.616c-.04-.3-.06-.58-.1-.84,1.671-.835,5.019-2.579,6.214-4.176.06.32.12.64.16.979A21.97,21.97,0,0,1,141.358,140.459Zm6.234-5.855a8.786,8.786,0,0,0-3.037-4.736c1.5-1.993,4.175-4.916,6.554-5.634a15.128,15.128,0,0,1,4.476-.74c.456.016,1.33.118,1.5.54a16.931,16.931,0,0,0-5.614.879c-.04.02-.08.06-.06.1.059.118,0,.052,1.279-.16,1.691-.3,6.212-1.065,6.753.56a1.038,1.038,0,0,1-.2.519,4,4,0,0,0-1.668-.239,26.394,26.394,0,0,0-5.066.778c-.088.044-.075.16.039.16a26.212,26.212,0,0,1,5.1-.6c.507.008,1.715.052,1.778.559.129,1.285-4.146.827-6.194,2.078a.447.447,0,0,0-.08.12,9.369,9.369,0,0,1-2.1,3.617A8.126,8.126,0,0,1,147.592,134.6Zm17.624-10.53c1.934,6.372-9.941,11.925-14.766,9.271a9.257,9.257,0,0,0,3.057-4.456c2.086-1.227,6.474-.6,6.274-2.4a.665.665,0,0,0-.34-.519,1.123,1.123,0,0,0,.28-.619c-.2-.977-1.528-1.339-2.458-1.339-.216-.794-1.761-.888-2.577-.839C158.849,120.81,164.634,122.134,165.216,124.074Zm26.1-3.377c-5.324,3.786-10.932,3.638-17.244,1.958-2.666-.739-4.3-1.445-6.714-.719a7.4,7.4,0,0,0-2.358,1.2c-1.67-1.671-7-2.334-10.69.08a9.834,9.834,0,0,0-1.059.119,9.6,9.6,0,0,0-5.4,2.418,20.2,20.2,0,0,0-3.437,4.017,1.15,1.15,0,0,0-.18-.12c-1.726-.455-4.664.6-6.314,1.279a15.949,15.949,0,0,0-3.2-2.958s18.07-7.971,33.156-15.025c-.48-.559-.979-1.139-1.519-1.678-14.646,6.674-32.336,14.685-34.075,15.584a7.982,7.982,0,0,0-1.763-.39c.169-2.695-.161-6.542-1.721-8.882,28.531-14.945,48.265-19.514,48.8-19.779a16.914,16.914,0,0,1,4.843,1.257,10.431,10.431,0,0,1,4.156,2.977c-.539.26-4.266,1.952-10.92,4.969.4.5.839,1.059,1.279,1.7,6.274-2.977,9.721-4.709,10.321-5.228.859-.72,1.858-12.389,2.717-25.816,7.086,3.117,4.916,13.252,1.279,19.961C187.414,104.793,199.84,114.586,191.312,120.7Z"/><path class="a" d="M137.036,47.556a.819.819,0,1,1-.819.819A.82.82,0,0,1,137.036,47.556Z"/><path class="a" d="M121.74,65.667a.82.82,0,1,1-.82.819A.819.819,0,0,1,121.74,65.667Z"/><path class="a" d="M122.715,41.51c.1-.1,3.494-.053,4.516-.04,7.189.13,6.814.185,6.814.3-.735,4.187-.565,16.019-.94,17.643-.039.119-.093.26-.219.26-.872.29-9.995-.716-10.91-.819l-.1-.1C121.287,54.029,121.893,46.179,122.715,41.51Zm3.557,17.584a51.167,51.167,0,0,0,6.554.359c.051,0,.078-.086.087-.137.085-.5.149-2.355.153-2.44a1.621,1.621,0,0,0-.46-.04,13.665,13.665,0,0,1-2.158.1,16.433,16.433,0,0,0-1.838-.42c-.52-.04-1.079,0-1.719-.06-.817-.051-1.713.385-2.338.26-.332.83-.879,1.229-1.7.819a1.084,1.084,0,0,1-.459-.819c-.18.04-.34.06-.46.08.04.639.1,1.279.18,1.9.3.04,1.3.14,2.577.26a1.294,1.294,0,0,1-.16-.939,1.13,1.13,0,0,1,.82-.82.982.982,0,0,1,.859.44A3.928,3.928,0,0,1,126.272,59.094Zm-.1,0c0-.236-.08-1.339-.24-1.419a.783.783,0,0,0-.559-.22.907.907,0,0,0-.64.62,1.294,1.294,0,0,0,.1.9C125.253,58.994,125.712,59.054,126.172,59.094Zm2.4-1.779c.256,0,.367.142.4.4.038.453.03.521-.359.8a1.744,1.744,0,0,1-.34.18,1.024,1.024,0,0,1-.819.08,2.45,2.45,0,0,1-.62-.48c-.594-.534-.046-1.534.919-1.358A2.375,2.375,0,0,1,128.57,57.315Zm3.556.06a.906.906,0,0,0-1-.2c-.518.16-.64.44-.879.4-.613-.123-.9,1.183-.06,1.1.533-.033.646-.26.819-.26.268,0,.416.276.82.16C132.2,58.472,132.331,57.734,132.126,57.375Zm-3.6.04c.1,0,.3-.013.3.3,0,.41.068.425-.639.779-.592.254-.72.059-1.139-.36-.435-.373-.009-1.09.719-1A2.078,2.078,0,0,1,128.53,57.415Zm3.516.18a.418.418,0,0,0-.459-.24c-.711.036-.876.431-1.219.48-.215.071-.22-.11-.36.1a.454.454,0,0,0-.08.5c.135.135.572.014.76-.08.5-.3.7.268,1.079.14A.685.685,0,0,0,132.046,57.6Zm-7.573-.919a4.08,4.08,0,0,0-1.958-.02,1,1,0,0,0,.46.639C123.557,57.644,124.066,57.219,124.473,56.676Zm-2.617-2.758c0,.887.041,2.041.08,2.738a5.253,5.253,0,0,1,2.517-.22c.682.292,1.54-.306,2.5-.2.64.06,1.179.02,1.719.06a14.275,14.275,0,0,1,1.838.46,12.148,12.148,0,0,0,2.118,0,1.343,1.343,0,0,1,.46.06c.019-.62.039-1.319.059-2.078a1.883,1.883,0,0,0-1.838-.12c-.61.3-.829.1-1.4.02-.64-.088-.854-.46-1.338-.4-.358.033-.42.24-.7.38-.433.217-1.124-.494-1.558-.32a2.844,2.844,0,0,1-1.559-.04,2.2,2.2,0,0,0-1.319.08A2.591,2.591,0,0,1,121.856,53.918Zm.06-3.436a3.932,3.932,0,0,1,1.9,0,3.789,3.789,0,0,0,1.978.239,1.421,1.421,0,0,1,.42-.06c.36-.04.8-.06,1.6-.2a7.828,7.828,0,0,1,3.058.02,6.823,6.823,0,0,0,2.377.4c0,.02,0,.06-.04.06a5.636,5.636,0,0,1-2.4-.24,7.611,7.611,0,0,0-2.958.02c-1.086.2-1.468.149-2,.26a3.789,3.789,0,0,1-2.1-.3,3.624,3.624,0,0,0-1.818-.06c-.04,1.039-.08,2.118-.06,3.217a6.193,6.193,0,0,0,.879.3c.713.13.733-.115,1.319-.18.4-.045,1.176.18,1.619.18.581,0,.624-.218,1.038-.08.317.064.767.34.92.34.18.036.367-.218.559-.3.815-.326.937.167,1.738.32.652.118.667.27,1.3.04a1.949,1.949,0,0,1,1.918.18c.04-1.9.1-4.1.18-6.215-1.019-.1-11.24-.544-11.24-.544C122.091,47.977,121.916,50.377,121.916,50.482Zm11.529-4.5a3.558,3.558,0,0,1-.659,1.119c.319.02.539.04.6.04C133.385,47.145,133.425,46.345,133.445,45.986Zm-.779,1.1a9.044,9.044,0,0,0-.22-1.359,6.708,6.708,0,0,1-.679,1.3C132.106,47.045,132.426,47.065,132.666,47.085Zm-1.039-.08c-.02-.02-.02-.04-.02-.08a8.1,8.1,0,0,0,.02-.879,4.333,4.333,0,0,1-.9.819.127.127,0,0,1-.12,0c-.118-.059-.037-.181-.02-.779.009-.328-.02-.378-.06-.46a1.515,1.515,0,0,0-.44.4c-.634.761-.586.87-.739.819a.133.133,0,0,1-.08-.1c0-.631-.2-1.044-.26-.979a10.783,10.783,0,0,0-.679.979.143.143,0,0,1-.12.06c-.04,0-.1-.04-.1-.08-.069-.275-.407-1.2-.6-1.1a3.213,3.213,0,0,0-.919,1.039c0,.04-.04.06-.06.08C128.33,46.845,130.268,46.945,131.627,47.005Zm1.818-1.179a38.9,38.9,0,0,1,.4-3.977c-1.448-.046-7.524-.32-11.03-.259-.04.3-.36,2.318-.619,5.115a1.417,1.417,0,0,1,.339-.02.032.032,0,0,1,0-.04c.866-1.313.972-1.6,1.079-1.379l.2.979c.86-1.547,1.061-1.284,1.259-.1.08-.119.18-.239.28-.359.21-.245.487-.5.739-.3a2.108,2.108,0,0,1,.42.879,3.4,3.4,0,0,1,.9-.939.378.378,0,0,1,.5.24,4.055,4.055,0,0,1,.34.739c.04-.08.1-.16.16-.26.276-.386.418-.619.6-.619.319,0,.386.6.44.919.192-.273.663-.914.979-1.019.4-.134.39.678.32,1.1a3.111,3.111,0,0,0,.7-.659.181.181,0,0,1,.24-.1c.157.078.117.583.1.759a8.634,8.634,0,0,0,.5-.959c.056-.138.169-.181.26,0a7.539,7.539,0,0,1,.22,1.319,2.7,2.7,0,0,0,.579-1.039C133.345,45.8,133.445,45.793,133.445,45.826Zm-7.033.939c-.105-.106-.294-1.251-.56-1.119a2.692,2.692,0,0,0-.759.859.1.1,0,0,1-.2-.04,4.349,4.349,0,0,0-.22-1.059c-.1-.245-.925,1.271-.839,1.1-.031.063-.14.05-.14-.02l-.2-1.039-.88,1.239C123.374,46.665,124.813,46.705,126.412,46.765Z"/><path class="a" d="M123.215,55.5c.279.26.959-.32.9-.56C124.058,54.572,122.854,55.136,123.215,55.5Z"/><path class="a" d="M125.373,55.177s-.34-.14-.36.1.8.42.819.2C125.832,55.237,125.373,55.177,125.373,55.177Z"/><path class="a" d="M127.99,54.977s-.419-.359-.679-.16C127.071,55.017,127.81,55.457,127.99,54.977Z"/><path class="a" d="M129.049,55.7s.26-.18-.5-.18-.66.28-.34.38A1.352,1.352,0,0,0,129.049,55.7Z"/><path class="a" d="M131.127,55.717s-.6.04-.339-.2,1-.24.919,0S131.127,55.717,131.127,55.717Z"/><path class="a" d="M173.111,41.529c.056-.884-.324-2.58-1.215-2.629s-1.244,1.722-1.326,2.608c-.718,8.743-2.778,35.935-2.746,45.075-.012.914.226,2.095,1.142,2.145s1.482-1.228,1.46-2.14C170.2,79.3,171.668,64.33,173.111,41.529Zm-.1-.005c-1.317,20.2-3.089,37.1-2.847,45.089.024.764-.437,1.937-1.186,1.9s-.889-1.139-.915-1.892c.017-9.13,2-36.936,2.625-45.063.08-.8.385-2.54,1.179-2.5C172.642,39.1,173.064,40.7,173.011,41.524Z"/><path class="a" d="M172.171,47.445c.045-.629-.184-1.874-.676-1.9s-.721,1.3-.768,1.926c-.728,9.637-1.917,27.573-1.989,33.836-.01.63.1,1.478.6,1.506s.819-.9.806-1.533C170.059,75.053,171.44,57.592,172.171,47.445Z"/><path class="a" d="M71.243,61.047c.025-.223.068-.462.111-.686.108-.455-.561-.674-.666-.175-.054.241-.093.495-.131.75a.348.348,0,1,0,.686.111Z"/><path class="a" d="M99.956,65.408a35.6,35.6,0,0,0-.939-6.294c.182-.162.433-.414.479-.46.352-.351-.245-.134-.579.2-.235-.809-.74-2.036-1.579-2.019a1.8,1.8,0,0,0-1.179.48c-.1-.1-.2-.18-.2-.18-.046-.045-.134-.125-.18-.08a.061.061,0,0,0,0,.08c.021.042-.075-.149.2.4a5,5,0,0,0-.959,2.258c-.284-3.078-.535-3.567-.506-3.753a7.887,7.887,0,0,0,.765-1.023.056.056,0,0,0-.079-.08c-.107.119-.66.68-.76.78-.085-.257-.536-2.682-1.678-3.7a1.79,1.79,0,0,0,.16-.24.057.057,0,0,0-.08-.08c-.064.047-.14.093-.24.16a1.443,1.443,0,0,0-1.179-.3c-1.476.13-2.22,1.806-2.578,3.236-.04-.019-.418-.292-.459-.319a.057.057,0,0,0-.087.071,4.258,4.258,0,0,0,.426.508,20.931,20.931,0,0,0-.439,2.958,2.085,2.085,0,0,0-.5.2c-.049,0-.071.1.02.1-.1.012.359-.04.46-.04-.04.5-.06,1.019-.08,1.519-.045,1.4,0,1.774-.03,1.809-.126-.095-.405-.375-.55-.231,0,.165.446.493.58.56.039,2.711.151,3.348.135,3.484a1.538,1.538,0,0,0-.994.432c-.033.323,1.391,10.521,2.038,12.569a11.485,11.485,0,0,0,10.69-.46l.659-11.969A1.233,1.233,0,0,0,99.956,65.408Zm-12.47.526c.167-.081.791-.362.817-.371.04.52.023.8.043.943A5,5,0,0,1,87.486,65.934Zm1,.733c0,.1-.18-2.947-.18-4.536.072.036.289.154.32.08.1-.25-.1-.3-.32-.42a34.43,34.43,0,0,1,.16-3.5,3.128,3.128,0,0,0,.9-.339c.045-.02.071-.1-.02-.1a2.165,2.165,0,0,0-.839.14,21.635,21.635,0,0,1,.439-2.718c.139.1.406.3.56.4a.057.057,0,0,0,.091-.065,4.77,4.77,0,0,0-.551-.655c.371-1.391,1.078-3.157,2.518-3.157a11.8,11.8,0,0,0-1.079,4.816.057.057,0,0,0-.08.08,1.039,1.039,0,0,0,.06.1c-.074.667.076.455-.14.779-.055.055.029.149.12.06,0,.091-.017,1.733.1,3.337-.05-.017-.17-.077-.3-.12-.02-.02-.06,0-.08.02s0,.06.02.08l.24.24c.04.039.1.059.14.1-.068,0-.479.5-.52.539a.057.057,0,0,0,.08.08c-.113.067.4-.25.5-.3.111,1.9.479,4.071.479,4.236-.04-.02-.1-.06-.14-.08-.1-.059-.179-.081-.24-.12a.676.676,0,0,0-.159-.079c-.059-.03-.125.035-.06.1a2.192,2.192,0,0,0,.459.4c.02,0,.02.02.04.02-.04.04-.08.06-.119.1a3.408,3.408,0,0,0-.26.28c-.082.041.011.148.06.1a1.279,1.279,0,0,0,.14-.06,1,1,0,0,0,.356-.186c.029.126.151,1.1.164,1.2A10.959,10.959,0,0,1,88.487,66.667Zm3,.882c-.03-.154-.12-.962-.144-1.2a.02.02,0,0,0,.02.02,2.173,2.173,0,0,0,.38.22c.219.073.222.117.279.06.083-.083-.478-.459-.559-.54a4.125,4.125,0,0,0,.42-.419c.081-.041-.012-.149-.06-.1a3.793,3.793,0,0,0-.54.28c0-.246-.5-4.4-.4-4.4a1.553,1.553,0,0,0,.3.14c.154.039.146.074.2.02.034-.068-.3-.37-.36-.4a1.971,1.971,0,0,0,.36-.359c.054-.055.174-.165.12-.22a.061.061,0,0,0-.08,0,2.16,2.16,0,0,0-.6.38c-.124-1.787-.12-2.614-.12-3.637.306-.2.032-.264.579.04.052.052.136,0,.08-.08a2.3,2.3,0,0,0-.26-.34,2.078,2.078,0,0,0,.34-.479.057.057,0,0,0-.066-.09,2.666,2.666,0,0,0-.454.37.9.9,0,0,0-.14-.1,13.82,13.82,0,0,1,.89-4.881,1.388,1.388,0,0,1,.649.3c-.06.048-.454.425-.36.519.079.079.484-.3.56-.379a7.74,7.74,0,0,1,1.638,3.776c-.1.1-.3.457-.379.56a.057.057,0,0,0,.08.08c-.1.1.259-.24.36-.34.718,3.691.6,6.775.659,11.25A14.433,14.433,0,0,1,91.488,67.549Zm3.753,0c.019-.959.079-3.577-.1-6.434a6.039,6.039,0,0,1,1-3.337,1.315,1.315,0,0,0,.3.32c.051.051.15.149.2.1a.06.06,0,0,0,0-.079,1.788,1.788,0,0,0-.32-.54,1.5,1.5,0,0,1,1.019-.44,24.338,24.338,0,0,1,.8,3.9c-.1-.1-.143-.1-.2-.1-.073-.005-.126.022-.08.08a4.1,4.1,0,0,0,.3.359c0,.012-.018.007-.36.52-.052.052.015.131.08.08.1-.075.232-.162.34-.26.119.993.325,3.032.316,3.113-.063-.044-.446-.268-.476-.2-.041.1.355.482.436.5.11-.1-.42.357-.316.46.038.039.151-.035.2-.059.195-.1.2-.12.219-.12.02.219.1,1.159.12,1.418A21.078,21.078,0,0,1,95.241,67.546Zm3.6-.8c0-.153-.04-1.293-.04-1.419a3.031,3.031,0,0,0,.54.34c.176.041.032-.12-.08-.26a3.465,3.465,0,0,0-.34-.32,3.644,3.644,0,0,0,.36-.4.057.057,0,0,0-.08-.081,1.873,1.873,0,0,0-.46.26c0-.093-.089-1.484-.3-3.237.037.025.168.075.259.14.06.043.13-.009.08-.08a1.634,1.634,0,0,0-.254-.342c.068-.088.412-.478.334-.557-.045-.045-.149.042-.2.08-.278.185-.259.281-.259.18a20.089,20.089,0,0,0-.92-3.917c.356.065.745.33,1.3,1.939a.527.527,0,0,0-.1.119c-.174.232-.125.264.12.14.02-.02.04-.02.06-.04a37.1,37.1,0,0,1,1.059,7.094C99.617,66.487,99.257,66.626,98.837,66.747Zm1.2-.4c-.02-.24-.04-.5-.06-.8.122.081.606.481.606.481S100.259,66.238,100.036,66.347Z"/></svg>